<svg aria-hidden="true" style="position: absolute; width: 0; height: 0; overflow: hidden;" version="1.1" xmlns="http://www.w3.org/2000/svg" xmlns:xlink="http://www.w3.org/1999/xlink">
<defs>
<symbol id="icon-instagram" viewBox="0 0 32 32">
<path stroke-linejoin="round" stroke-linecap="round" stroke-miterlimit="4" stroke-width="1.3176" d="M24.084 6.515h0.837M0.659 11.367c0-3.748 0-5.622 0.73-7.054 0.642-1.259 1.665-2.283 2.925-2.925 1.432-0.73 3.306-0.73 7.054-0.73h8.701c3.748 0 5.622 0 7.054 0.73 1.259 0.642 2.283 1.665 2.925 2.925 0.73 1.432 0.73 3.306 0.73 7.054v8.701c0 3.748 0 5.622-0.73 7.054-0.642 1.259-1.665 2.283-2.925 2.925-1.432 0.73-3.306 0.73-7.054 0.73h-8.701c-3.748 0-5.622 0-7.054-0.73-1.259-0.642-2.283-1.665-2.925-2.925-0.73-1.432-0.73-3.306-0.73-7.054v-8.701z"></path>
<path stroke-linejoin="round" stroke-linecap="round" stroke-miterlimit="4" stroke-width="1.3176" d="M21.51 14.86c0.113 0.761 0.075 1.536-0.112 2.282s-0.519 1.448-0.977 2.066c-0.458 0.618-1.034 1.139-1.693 1.534s-1.391 0.657-2.152 0.77c-0.761 0.113-1.536 0.075-2.282-0.112s-1.448-0.519-2.066-0.977c-1.247-0.926-2.076-2.309-2.304-3.845s0.164-3.101 1.090-4.348c0.925-1.247 2.309-2.076 3.845-2.304s3.101 0.164 4.348 1.090c1.248 0.925 2.076 2.309 2.304 3.845z"></path>
</symbol>
<symbol id="icon-menu" viewBox="0 0 39 32">
<path stroke-linejoin="miter" stroke-linecap="butt" stroke-miterlimit="4" stroke-width="1.7231" d="M0 30.4h39.385"></path>
<path stroke-linejoin="miter" stroke-linecap="butt" stroke-miterlimit="4" stroke-width="1.7231" d="M0 15.631h39.385"></path>
<path stroke-linejoin="miter" stroke-linecap="butt" stroke-miterlimit="4" stroke-width="1.7231" d="M0 0.862h39.385"></path>
</symbol>
<symbol id="icon-phone" viewBox="0 0 32 32">
<path stroke-linejoin="miter" stroke-linecap="round" stroke-miterlimit="10" stroke-width="1.3176" d="M16.916 29.055c-0.507-0.226-1.007-0.468-1.498-0.728-2.445-1.382-4.691-3.091-6.675-5.079-2.575-2.424-4.691-5.294-6.243-8.472-0.831-1.708-1.392-3.534-1.664-5.413-0.369-1.898-0.159-3.863 0.602-5.641 0.47-0.765 1.037-1.465 1.685-2.082 0.263-0.295 0.583-0.534 0.94-0.702s0.745-0.262 1.14-0.277c0.822 0.124 1.566 0.553 2.081 1.208 1.123 1.249 2.328 2.372 3.515 3.559 0.467 0.4 0.759 0.969 0.811 1.582-0.020 0.516-0.218 1.009-0.562 1.395-0.394 0.5-0.873 0.957-1.33 1.436-0.276 0.267-0.487 0.593-0.617 0.954s-0.175 0.747-0.132 1.128c0.287 0.891 0.778 1.704 1.434 2.372 0.791 1.083 1.581 2.084 2.475 3.144 1.608 1.857 3.513 3.433 5.638 4.664 0.294 0.222 0.641 0.361 1.007 0.405s0.736-0.010 1.074-0.156c0.707-0.394 1.335-0.916 1.851-1.54 0.448-0.546 1.089-0.895 1.789-0.978 0.623 0.033 1.211 0.299 1.644 0.749 0.56 0.479 1.039 1.042 1.56 1.561 0.519 0.521 0.936 0.895 1.372 1.374 0.523 0.461 1.015 0.954 1.477 1.478 0.358 0.462 0.528 1.042 0.479 1.623-0.186 0.696-0.586 1.315-1.144 1.77-0.785 0.817-1.739 1.453-2.795 1.863s-2.189 0.584-3.32 0.511c-2.289-0.13-4.529-0.71-6.593-1.708z"></path>
</symbol>
<symbol id="icon-logo" viewBox="0 0 57 32">
<path d="M54.128 0.159c-0.064 0.090-0.214 0.177-0.333 0.193-0.191 0.026-0.222 0.082-0.26 0.47-0.035 0.349-0.111 0.518-0.372 0.817-0.18 0.207-0.328 0.408-0.328 0.447s-0.105-0.010-0.233-0.109c-0.273-0.211-0.489-0.172-0.84 0.15-0.272 0.25-0.3 0.412-0.108 0.62 0.12 0.13 0.103 0.182-0.175 0.539-0.169 0.217-0.307 0.45-0.307 0.516s-0.079 0.191-0.175 0.276c-0.171 0.152-0.175 0.15-0.175-0.105 0-0.32-0.155-0.456-0.589-0.513-0.41-0.054-0.7 0.15-0.777 0.546-0.041 0.21-0.013 0.306 0.126 0.423 0.165 0.139 0.169 0.17 0.051 0.394-0.071 0.134-0.16 0.243-0.199 0.243s-0.116 0.097-0.171 0.215c-0.076 0.163-0.075 0.215 0.004 0.215 0.057 0 0.012 0.068-0.099 0.15s-0.267 0.223-0.346 0.311c-0.506 0.566-1.15 1.085-1.704 1.375-0.388 0.203-0.584 0.204-0.254 0.001 0.085-0.052 0.247-0.27 0.359-0.483 0.188-0.359 0.233-0.391 0.608-0.433 0.723-0.080 1.037-0.701 0.58-1.149-0.166-0.163-0.29-0.21-0.48-0.183-0.203 0.029-0.236 0.014-0.16-0.076 0.052-0.062 0.136-0.088 0.187-0.057 0.052 0.032 0.065 0.014 0.030-0.042-0.098-0.156 0.2-0.516 0.477-0.576 0.285-0.061 0.326-0.106 0.435-0.482 0.065-0.222 0.043-0.296-0.142-0.478-0.123-0.121-0.276-0.194-0.348-0.166-0.105 0.039-0.112 0.016-0.037-0.121 0.051-0.093 0.141-0.171 0.199-0.173s0.18-0.102 0.27-0.223c0.133-0.179 0.145-0.259 0.066-0.429-0.133-0.286-0.304-0.331-0.58-0.154-0.198 0.127-0.229 0.203-0.209 0.501 0.013 0.193-0.026 0.519-0.087 0.725-0.103 0.35-0.12 0.365-0.264 0.236-0.197-0.175-0.483-0.176-0.66-0.002-0.17 0.167-0.181 0.754-0.016 0.888 0.096 0.078 0.103 0.177 0.034 0.462-0.048 0.2-0.090 0.411-0.092 0.47-0.006 0.144-0.105 0.136-0.238-0.021-0.169-0.199-0.469-0.153-0.728 0.112-0.23 0.236-0.322 0.618-0.148 0.618 0.048 0 0.088 0.075 0.088 0.167s0.086 0.226 0.192 0.299c0.161 0.111 0.188 0.202 0.169 0.564-0.020 0.368 0 0.432 0.136 0.433 0.345 0.004-1.686 1.667-2.117 1.733-0.096 0.015-0.195 0.047-0.219 0.072-0.103 0.105-0.545 0.254-0.62 0.209-0.045-0.027-0.081-0.013-0.081 0.032s-0.084 0.103-0.186 0.129l-0.186 0.048 0.187-0.171c0.103-0.094 0.227-0.147 0.276-0.117 0.212 0.129 1.318-0.738 1.368-1.071 0.010-0.068 0.042-0.214 0.070-0.324s0.007-0.281-0.047-0.38c-0.084-0.154-0.156-0.174-0.49-0.137-0.513 0.057-0.871 0.384-0.951 0.869-0.121 0.734-0.547 1.375-0.96 1.443-0.096 0.016-0.195 0.049-0.219 0.072s-0.201 0.097-0.394 0.163c-0.193 0.066-0.498 0.211-0.679 0.323s-0.328 0.184-0.328 0.161c0-0.080-1.1 0.419-1.708 0.775-0.337 0.197-0.711 0.386-0.832 0.42-0.581 0.162-0.579 0.163-0.278-0.131 0.37-0.362 0.53-0.668 0.597-1.141 0.061-0.438-0.066-0.58-0.267-0.299-0.074 0.104-0.154 0.171-0.178 0.148s0.055-0.152 0.173-0.287c0.118-0.135 0.215-0.298 0.215-0.362 0-0.27-0.862-0.043-1.24 0.328-0.329 0.321-0.595 0.932-0.506 1.16 0.047 0.122 0.042 0.216-0.015 0.25-0.050 0.030-0.071 0.105-0.046 0.167 0.056 0.144-0.504 0.728-0.927 0.967-0.179 0.101-0.466 0.21-0.638 0.242s-0.441 0.143-0.598 0.248c-0.157 0.105-0.415 0.235-0.573 0.289l-0.288 0.098 0.248-0.242c0.136-0.133 0.381-0.406 0.544-0.607 0.273-0.337 0.319-0.361 0.6-0.309 0.44 0.081 0.987-0.278 0.987-0.648 0-0.332-0.373-0.723-0.618-0.648-0.094 0.028-0.257 0.078-0.363 0.109-0.413 0.123 0.522-0.682 0.955-0.823 0.445-0.145 0.589-0.4 0.371-0.657-0.252-0.298-0.872-0-0.872 0.418 0 0.11-0.12 0.311-0.27 0.451l-0.27 0.252 0.322-0.688c0.177-0.378 0.343-0.746 0.369-0.816s0.151-0.226 0.278-0.344c0.482-0.449 0.494-0.973 0.023-1.089-0.17-0.042-0.265-0.002-0.423 0.179-0.224 0.256-0.257 0.53-0.104 0.859 0.080 0.172 0.070 0.276-0.048 0.52-0.162 0.336-0.239 0.369-0.402 0.176-0.12-0.142-0.569-0.182-0.482-0.043 0.030 0.047-0.005 0.086-0.077 0.086s-0.157 0.041-0.189 0.091c-0.090 0.142 0.036 0.511 0.175 0.511 0.068 0 0.153 0.045 0.188 0.101 0.043 0.068 0.016 0.083-0.082 0.046-0.118-0.044-0.146 0-0.146 0.238 0 0.161-0.042 0.319-0.094 0.35s-0.074 0.107-0.050 0.169c0.065 0.165-0.033 0.22-0.218 0.123-0.123-0.065-0.249-0.038-0.512 0.11-0.319 0.18-0.348 0.225-0.339 0.54 0.006 0.211 0.077 0.416 0.183 0.532 0.165 0.178 0.166 0.208 0.037 0.58-0.087 0.25-0.102 0.392-0.043 0.392 0.060 0 0.057 0.043-0.011 0.123-0.057 0.068-0.407 0.189-0.777 0.269s-0.793 0.197-0.939 0.259c-0.612 0.26-2.562 0.399-2.432 0.174 0.14-0.243 0.23-0.308 0.323-0.233 0.138 0.111 0.908-0.025 1.381-0.243 0.28-0.129 0.45-0.284 0.585-0.531 0.218-0.401 0.245-0.723 0.067-0.791-0.182-0.068-0.231 0.024-0.113 0.212 0.084 0.133 0.079 0.181-0.025 0.244-0.082 0.050-0.15 0.045-0.187-0.014-0.069-0.11-0.253-0.018-0.254 0.128-0 0.056-0.155 0.189-0.345 0.295-0.312 0.175-0.357 0.18-0.481 0.058-0.075-0.074-0.137-0.108-0.137-0.075s-0.057 0.013-0.127-0.044c-0.165-0.134-0.285-0.056-0.433 0.282-0.066 0.15-0.254 0.399-0.419 0.553-0.256 0.239-0.399 0.293-0.996 0.376-0.868 0.121-2.457 0.177-2.351 0.083 0.043-0.038 0.335-0.199 0.648-0.356s0.685-0.364 0.826-0.459c0.179-0.119 0.268-0.14 0.292-0.069 0.019 0.057 0.091 0.103 0.159 0.103s0.124 0.035 0.124 0.077c0 0.13 0.618-0.051 0.748-0.22 0.142-0.183 0.168-0.545 0.040-0.545-0.048 0-0.088-0.054-0.088-0.12 0-0.258-0.768-0.316-0.98-0.074-0.192 0.22-0.245 0.418-0.139 0.522 0.066 0.065 0.035 0.076-0.108 0.040-0.123-0.031-0.181-0.019-0.148 0.034 0.029 0.047-0.086 0.151-0.257 0.231l-0.311 0.145 0.332-0.398c0.44-0.527 1.234-1.223 1.588-1.393 0.296-0.142 0.41-0.403 0.131-0.301-0.137 0.051-0.14 0.041-0.025-0.098 0.122-0.148 0.131-0.147 0.207 0.020 0.186 0.408 0.847 0.248 0.847-0.206 0-0.243-0.224-0.474-0.396-0.41-0.071 0.027-0.128 0.015-0.126-0.025 0.005-0.143 0.237-0.374 0.374-0.374 0.174 0 0.411-0.324 0.411-0.561 0-0.212-0.156-0.385-0.349-0.385-0.179 0-0.439 0.433-0.439 0.731 0 0.129-0.124 0.391-0.278 0.588-0.317 0.405-0.48 0.583-0.389 0.425 0.096-0.168-0.038-0.531-0.217-0.587-0.277-0.086-0.392 0.055-0.157 0.192 0.206 0.12 0.205 0.121-0.070 0.077-0.255-0.041-0.287-0.020-0.378 0.251-0.055 0.163-0.077 0.332-0.050 0.375s-0.088 0.28-0.256 0.526c-0.168 0.246-0.306 0.404-0.306 0.352 0-0.131-0.325-0.12-0.38 0.013-0.027 0.065-0.047 0.049-0.051-0.040-0.004-0.095-0.054-0.13-0.138-0.098-0.083 0.031-0.131-0.001-0.131-0.088 0-0.152 0.397-0.17 0.591-0.027 0.152 0.113 0.146-0.147-0.006-0.271-0.165-0.134-0.454-0.058-0.727 0.19-0.22 0.2-0.231 0.245-0.178 0.742 0.044 0.411 0.023 0.589-0.092 0.802-0.082 0.15-0.139 0.318-0.129 0.373 0.038 0.193-0.725 0.447-1.692 0.561-1.123 0.133-2.737 0.088-2.452-0.068 0.096-0.053 0.471-0.121 0.832-0.151s0.77-0.071 0.908-0.091c0.547-0.078 1.034-0.877 0.691-1.132-0.084-0.063-0.359-0.116-0.611-0.117-0.375-0.002-0.528 0.046-0.854 0.272-0.218 0.151-0.397 0.321-0.397 0.377s-0.1 0.167-0.222 0.245c-0.122 0.078-0.198 0.18-0.169 0.225 0.050 0.080-0.080 0.16-0.324 0.2-0.064 0.011-0.211 0.070-0.326 0.132-0.429 0.231-2.499 0.251-3.292 0.031-0.134-0.037-0.085-0.074 0.213-0.16 0.213-0.062 0.416-0.094 0.453-0.072s0.090 0.001 0.121-0.047c0.030-0.048 0.148-0.087 0.261-0.087s0.225-0.048 0.248-0.107c0.028-0.072 0.090-0.044 0.187 0.086 0.105 0.14 0.235 0.193 0.471 0.193 0.442 0 0.715-0.201 0.715-0.526 0-0.459-0.133-0.591-0.594-0.59-0.481 0.002-0.547 0.036-0.762 0.4-0.089 0.15-0.255 0.314-0.37 0.365-0.348 0.156-0.403 0.105-0.13-0.12 0.142-0.117 0.451-0.399 0.685-0.625 0.615-0.592 0.871-0.731 1.332-0.722 0.47 0.009 0.627-0.095 0.627-0.416 0-0.27-0.126-0.4-0.431-0.443l-0.212-0.030 0.212-0.1c0.117-0.055 0.342-0.152 0.5-0.215 0.557-0.222 0.493-1.017-0.082-1.017-0.265 0-0.6 0.435-0.6 0.781 0 0.3-0.104 0.468-0.482 0.781-0.167 0.138-0.175 0.135-0.188-0.073-0.021-0.352-0.155-0.415-0.518-0.246l-0.323 0.15 0.052 0.442c0.029 0.243 0.015 0.5-0.032 0.571-0.066 0.101-0.084 0.082-0.085-0.090-0.001-0.121-0.049-0.266-0.106-0.322-0.142-0.139-0.463-0.13-0.588 0.017-0.056 0.066-0.214 0.166-0.351 0.221-0.302 0.123-0.424 0.537-0.239 0.81 0.104 0.153 0.097 0.217-0.053 0.48-0.095 0.166-0.213 0.328-0.263 0.359s-0.065 0.12-0.034 0.199c0.042 0.108 0.018 0.132-0.097 0.097-0.162-0.050-0.445 0.078-0.36 0.162 0.028 0.027 0.244 0.064 0.479 0.081 0.874 0.064 1.486 0.164 1.722 0.28 0.172 0.085 0.287 0.095 0.394 0.034 0.095-0.054 0.108-0.088 0.037-0.089-0.063-0.001-0.090-0.042-0.059-0.091 0.075-0.119 3.127-0.019 3.204 0.105 0.036 0.057 0.071 0.048 0.095-0.026 0.033-0.099 0.704 0.804 0.794 1.069 0.017 0.049 0.078 0.059 0.137 0.024 0.080-0.049 0.058-0.145-0.086-0.38l-0.193-0.316 0.364 0.344c0.2 0.189 0.364 0.373 0.365 0.408s-0.119 0.064-0.266 0.064-0.245 0.036-0.218 0.080c0.028 0.044 0.010 0.104-0.039 0.134s-0.089 0.011-0.089-0.042c0-0.053-0.039-0.072-0.088-0.043s-0.088 0.206-0.088 0.393c0 0.291 0.041 0.364 0.285 0.51 0.369 0.221 0.381 0.219 0.704-0.099l0.275-0.27 0.327 0.373c0.24 0.273 0.334 0.466 0.353 0.719 0.021 0.285 0.067 0.36 0.255 0.425 0.312 0.107 0.667 0.005 0.737-0.212 0.058-0.179 0.058-0.179 0.272 0.018 0.118 0.108 0.256 0.36 0.307 0.559 0.117 0.456 0.364 0.72 0.675 0.72 0.308 0 0.452-0.142 0.452-0.447 0-0.335-0.277-0.585-0.602-0.545-0.175 0.022-0.309-0.021-0.411-0.133-0.147-0.159-0.142-0.165 0.121-0.165 0.299 0 0.454-0.185 0.454-0.542 0-0.313-0.199-0.429-0.648-0.375-0.305 0.037-0.431 0.011-0.584-0.12-0.107-0.092-0.239-0.167-0.292-0.168s-0.195-0.078-0.315-0.17l-0.219-0.168 0.239-0.002c0.477-0.004 0.66-0.79 0.253-1.094-0.198-0.148-0.841-0.14-0.97 0.013-0.085 0.1-0.15 0.105-0.339 0.023-0.129-0.055-0.254-0.122-0.278-0.148-0.045-0.049-0.62-0.29-0.91-0.381-0.258-0.081-0.145-0.121 0.652-0.231 1.159-0.16 2.445-0.172 2.745-0.026 0.14 0.068 0.327 0.124 0.416 0.124s0.162 0.052 0.162 0.115c0 0.178 0.573 0.648 1.018 0.835 0.341 0.143 0.456 0.154 0.764 0.074 0.732-0.191 0.803-0.45 0.272-1.002-0.238-0.248-0.37-0.311-0.714-0.341-0.234-0.020-0.606 0.020-0.838 0.090-0.413 0.125-0.765 0.107-0.765-0.039 0-0.042 0.049-0.078 0.109-0.080s0.385-0.041 0.722-0.086c0.337-0.045 1.125-0.098 1.751-0.119l1.138-0.038 0.286 0.301c0.158 0.166 0.259 0.346 0.227 0.402s-0.027 0.072 0.013 0.037c0.121-0.108 0.394 0.434 0.394 0.782 0 0.409 0.284 0.7 0.682 0.7 0.341 0 0.582-0.31 0.526-0.678l-0.037-0.249 0.336 0.208c0.532 0.33 0.757 0.553 0.814 0.808 0.070 0.312 0.33 0.534 0.625 0.534 0.233 0 0.469-0.211 0.469-0.419 0-0.179-0.446-0.462-0.734-0.466-0.183-0.002-0.385-0.101-0.616-0.301-0.189-0.164-0.318-0.297-0.288-0.297 0.122 0 0.674 0.294 0.674 0.36 0 0.038 0.049 0.070 0.109 0.069s0.471 0.16 0.913 0.356c0.653 0.29 0.814 0.399 0.86 0.581 0.144 0.576 0.554 0.788 0.867 0.449 0.279-0.303-0.136-0.982-0.514-0.839-0.072 0.027-0.259-0.006-0.417-0.073-0.271-0.116-0.274-0.122-0.063-0.126 0.123-0.002 0.271-0.050 0.328-0.106 0.14-0.137 0.134-0.54-0.010-0.657-0.183-0.149-0.647-0.148-0.821 0.002-0.134 0.116-0.253 0.124-0.764 0.055-0.646-0.087-1.307-0.308-0.961-0.322 0.102-0.004 0.291-0.089 0.421-0.189 0.26-0.201 0.285-0.52 0.062-0.785-0.165-0.196-0.819-0.206-0.981-0.015-0.093 0.11-0.214 0.124-0.646 0.072-0.292-0.035-0.625-0.057-0.741-0.049s-0.253-0.020-0.306-0.063c-0.053-0.042-0.175-0.093-0.272-0.113-0.185-0.038-0.105-0.065 1.872-0.628 1.143-0.326 1.753-0.362 1.96-0.116 0.159 0.188 0.526 0.397 0.958 0.545 0.475 0.162 0.509 0.162 0.509-0.007 0-0.087-0.048-0.12-0.131-0.089-0.072 0.027-0.131 0.012-0.131-0.034s0.062-0.083 0.138-0.083c0.223 0 0.381-0.205 0.286-0.371-0.065-0.115-0.045-0.145 0.097-0.145 0.207 0 0.208-0.002 0.094-0.295-0.078-0.2-0.13-0.22-0.575-0.22-0.301 0-0.652 0.069-0.911 0.178-0.235 0.099-0.552 0.166-0.717 0.15l-0.295-0.028 0.438-0.153c0.241-0.084 0.674-0.266 0.963-0.404 0.485-0.232 1.979-0.689 2.252-0.689 0.197 0 1.233 0.55 1.276 0.678 0.023 0.066 0.001 0.095-0.049 0.065s-0.113 0.005-0.141 0.077c-0.029 0.075 0.005 0.153 0.078 0.181 0.071 0.027 0.13 0.116 0.13 0.198 0 0.438 0.844 0.606 1.102 0.219 0.085-0.127 0.127-0.32 0.105-0.473s0-0.255 0.056-0.252c0.238 0.016 0.638 0.339 0.823 0.666 0.184 0.325 0.236 0.359 0.542 0.359 0.379 0 0.624-0.233 0.548-0.521-0.053-0.2-0.077-0.198 0.486-0.034 0.286 0.083 0.454 0.18 0.454 0.262 0 0.071 0.097 0.224 0.215 0.34 0.389 0.382 0.923 0.204 0.923-0.309 0-0.345-0.328-0.551-0.751-0.473-0.333 0.061-1.526-0.189-1.526-0.321 0-0.040-0.035-0.051-0.077-0.025s-0.23-0.010-0.416-0.081l-0.338-0.127 0.455 0.028c0.25 0.015 0.452 0.005 0.449-0.022-0.022-0.201 0.041-0.182 0.19 0.058 0.13 0.209 0.236 0.279 0.42 0.279 0.458 0 0.62-0.43 0.278-0.734-0.161-0.143-0.221-0.148-0.589-0.052-0.225 0.059-0.431 0.134-0.456 0.167s-0.341 0.070-0.703 0.083c-0.62 0.022-0.646 0.016-0.46-0.112 0.262-0.181 0.274-0.738 0.022-0.986-0.288-0.283-0.632-0.222-0.973 0.171-0.222 0.257-0.363 0.344-0.56 0.346-0.145 0.001-0.413 0.037-0.598 0.079-0.32 0.073-0.329 0.070-0.191-0.080 0.079-0.086 0.27-0.206 0.422-0.267s0.303-0.145 0.332-0.188c0.030-0.043 0.337-0.168 0.683-0.28 0.663-0.213 1.444-0.215 1.627-0.004 0.169 0.194 0.705 0.381 1.206 0.42 0.46 0.036 0.529 0.018 0.766-0.2 0.144-0.132 0.259-0.311 0.258-0.398-0.005-0.241-0.195-0.499-0.391-0.532-0.745-0.125-0.838-0.115-1.394 0.148-0.427 0.202-0.63 0.253-0.842 0.211l-0.28-0.055 0.427-0.167c0.235-0.092 0.476-0.17 0.536-0.173s0.109-0.041 0.109-0.082 0.049-0.066 0.109-0.054c0.060 0.012 0.513-0.106 1.006-0.261 0.626-0.197 0.976-0.265 1.16-0.226 0.145 0.031 0.263 0.087 0.263 0.124s0.094 0.049 0.209 0.028c0.276-0.052 0.579 0.114 0.579 0.316 0 0.213 0.484 0.606 0.745 0.606 0.414 0 0.586-0.368 0.379-0.813-0.095-0.205-0.14-0.219-0.679-0.208-0.525 0.010-1.058-0.104-1.058-0.226 0-0.156 2.159 0.235 2.309 0.418 0.142 0.174 0.554 0.248 0.765 0.137 0.135-0.071 0.168-0.148 0.128-0.303-0.050-0.194-0.030-0.208 0.305-0.208 0.207 0 0.416 0.056 0.494 0.133 0.095 0.094 0.268 0.125 0.585 0.107 0.435-0.025 0.449-0.034 0.449-0.282 0-0.366-0.364-0.538-0.737-0.348-0.144 0.073-0.332 0.131-0.418 0.13-0.15-0.003-0.15-0.008-0.004-0.117 0.084-0.063 0.153-0.191 0.153-0.285 0-0.184-0.254-0.455-0.426-0.455-0.165 0-0.537 0.266-0.537 0.383 0 0.058-0.152 0.15-0.339 0.205-0.47 0.138-0.579 0.129-0.412-0.036 0.185-0.182 0.176-0.634-0.016-0.777-0.185-0.138-0.583-0.153-0.816-0.031-0.093 0.049-0.227 0.223-0.296 0.387-0.079 0.185-0.221 0.333-0.372 0.389-0.135 0.050-0.359 0.146-0.499 0.214-0.453 0.221-0.532 0.131-0.136-0.156 0.212-0.154 0.564-0.458 0.782-0.676 0.373-0.373 1.524-1.041 2.173-1.261 0.265-0.090 0.294-0.082 0.365 0.102 0.083 0.213 0.393 0.313 0.956 0.306 0.626-0.008 1.292-0.496 1.493-1.095 0.151-0.448 0.083-0.537-0.458-0.597-0.511-0.056-0.906 0.080-1.304 0.45-0.375 0.35-0.852 0.436-0.682 0.124 0.053-0.097 0.163-0.202 0.244-0.232s0.295-0.189 0.476-0.353c0.373-0.338 0.725-0.562 1.034-0.658 0.116-0.036 0.354-0.159 0.528-0.272 0.26-0.169 0.382-0.195 0.682-0.148 0.381 0.060 0.617-0.061 0.809-0.415 0.114-0.209-0.135-0.668-0.363-0.668-0.249 0-0.212-0.135 0.068-0.25 0.132-0.055 0.398-0.237 0.591-0.406s0.479-0.361 0.636-0.428c0.625-0.267 0.799-0.598 0.445-0.841l-0.189-0.13 0.211-0.173c0.116-0.095 0.235-0.174 0.263-0.175s0.097-0.1 0.151-0.218c0.066-0.142 0.171-0.215 0.31-0.215 0.271 0 0.371-0.316 0.17-0.534-0.187-0.203-0.599-0.198-0.746 0.010zM50.454 3.892c0.041 0.207-0.13 0.177-0.186-0.034-0.030-0.112-0.010-0.165 0.056-0.143 0.056 0.018 0.115 0.098 0.131 0.177zM51.175 4.317l-0.205 0.191 0.166-0.228c0.091-0.125 0.183-0.211 0.205-0.191s-0.053 0.123-0.166 0.228zM47.546 4.723c0.005 0.142-0.021 0.258-0.058 0.258s-0.11 0.106-0.162 0.236c-0.088 0.223-0.091 0.219-0.040-0.064 0.054-0.301 0.181-0.688 0.226-0.687 0.013 0 0.028 0.116 0.033 0.258zM50.382 4.75c0 0.093-0.273 0.27-0.736 0.476-0.044 0.019 0.030-0.105 0.164-0.277 0.238-0.306 0.572-0.423 0.572-0.199zM42.873 4.983c-0.199 0.079-0.256 0.209-0.126 0.288 0.072 0.044 0.068 0.347-0.010 0.741-0.070 0.357-0.351 0.87-0.418 0.763-0.082-0.13-0.486-0.124-0.65 0.010-0.072 0.059-0.132 0.236-0.132 0.393 0 0.24 0.028 0.28 0.177 0.252 0.099-0.019 0.154 0.003 0.125 0.049s-0.085 0.063-0.124 0.039-0.14 0.227-0.222 0.557c-0.082 0.331-0.184 0.601-0.226 0.601s-0.137-0.116-0.212-0.258c-0.102-0.193-0.197-0.258-0.38-0.258-0.467 0-0.659 0.292-0.502 0.763 0.053 0.159 0.042 0.189-0.051 0.138-0.065-0.037 0.009 0.066 0.165 0.229 0.26 0.271 0.276 0.321 0.197 0.593-0.105 0.358-0.108 0.52-0.013 0.667 0.074 0.114 0.203 0.027 0.954-0.647 0.245-0.219 0.38-0.276 0.64-0.266 0.264 0.010 0.375-0.037 0.554-0.237 0.208-0.232 0.317-0.723 0.162-0.723-0.037 0-0.156 0.060-0.263 0.134-0.219 0.151-0.244 0.114-0.089-0.131 0.058-0.092 0.073-0.198 0.032-0.235s-0.091-0.024-0.11 0.030-0.103 0.083-0.185 0.065c-0.275-0.062-0.486 0.19-0.471 0.563 0.010 0.254-0.036 0.388-0.179 0.519-0.106 0.097-0.242 0.158-0.301 0.136-0.062-0.023-0.089 0.007-0.064 0.073 0.024 0.062-0.015 0.136-0.088 0.163-0.148 0.056-0.105-0.145 0.078-0.371 0.058-0.071 0.191-0.308 0.296-0.527 0.261-0.544 0.496-0.795 0.677-0.727 0.128 0.048 0.131 0.037 0.025-0.092-0.108-0.13-0.103-0.14 0.036-0.089 0.096 0.036 0.137 0.024 0.103-0.028-0.094-0.15 0.467-0.758 0.726-0.787 0.149-0.017 0.249-0.087 0.268-0.189 0.045-0.232-0.163-0.569-0.351-0.569-0.197 0-0.197 0.013 0.009-0.459 0.121-0.277 0.227-0.395 0.372-0.415 0.406-0.056 0.269-0.864-0.142-0.839-0.051 0.003-0.181 0.040-0.29 0.083zM43.238 5.118c0.076 0.029 0.117 0.085 0.092 0.125-0.056 0.089-0.303 0.007-0.303-0.1 0-0.091 0.028-0.094 0.211-0.025zM47.212 6.316c-0.123 0.265-0.185 0.22-0.109-0.079 0.032-0.123 0.091-0.204 0.132-0.179s0.031 0.141-0.024 0.258zM46.709 6.747c-0.076 0.249-0.077 0.25-0.085 0.032-0.004-0.122 0.019-0.248 0.051-0.279 0.102-0.1 0.113-0.014 0.034 0.248zM48.718 6.599c0 0.039-0.057 0.072-0.127 0.072s-0.107-0.032-0.082-0.072c0.025-0.039 0.082-0.072 0.127-0.072s0.082 0.032 0.082 0.072zM46.705 7.124c0 0.045-0.039 0.105-0.088 0.134s-0.088-0.007-0.088-0.081 0.039-0.134 0.088-0.134c0.048 0 0.088 0.036 0.088 0.081zM42.249 7.695c-0.102 0.127-0.185 0.196-0.185 0.153 0-0.118 0.274-0.478 0.325-0.428 0.025 0.024-0.038 0.148-0.14 0.275zM44.578 8.021c-0.018 0.053-0.128 0.11-0.244 0.127s-0.241 0.075-0.276 0.129c-0.041 0.063-0.065 0.045-0.066-0.052-0.001-0.083 0.059-0.15 0.133-0.15s0.156-0.056 0.182-0.123c0.056-0.143 0.32-0.075 0.271 0.070zM44.515 8.418c0 0.047-0.039 0.086-0.088 0.086s-0.088-0.039-0.088-0.086 0.039-0.086 0.088-0.086c0.048 0 0.088 0.039 0.088 0.086zM43.902 8.671c0 0.045-0.039 0.105-0.088 0.134s-0.088-0.007-0.088-0.081 0.039-0.134 0.088-0.134c0.048 0 0.088 0.036 0.088 0.081zM42.707 8.895c-0.029 0.073-0.071 0.114-0.094 0.092s-0.016-0.082 0.016-0.133c0.086-0.137 0.137-0.111 0.078 0.041zM46.792 9.152c0 0.022-0.187 0.038-0.416 0.036l-0.416-0.004 0.263-0.113c0.234-0.101 0.569-0.053 0.569 0.081zM41.125 9.256c-0.031 0.083-0.134 0.253-0.227 0.379s-0.17 0.332-0.17 0.458c0 0.126-0.033 0.197-0.072 0.158-0.118-0.116 0.059-0.698 0.282-0.929 0.247-0.255 0.261-0.26 0.187-0.066zM48.39 9.163c-0.060 0.024-0.159 0.024-0.219 0s-0.011-0.043 0.109-0.043c0.12 0 0.17 0.020 0.109 0.043zM47.604 9.42c0.059-0.024-0.010-0.041-0.155-0.040s-0.193 0.021-0.108 0.043c0.085 0.022 0.203 0.020 0.263-0.003zM29.673 9.965c0.030 0.047 0.015 0.086-0.033 0.086s-0.112-0.039-0.142-0.086c-0.030-0.047-0.015-0.086 0.033-0.086s0.112 0.039 0.142 0.086zM35.004 10.497c-0.040 0.062-0.085 0.202-0.1 0.31s-0.107 0.321-0.203 0.473l-0.175 0.276 0.055-0.258c0.093-0.437 0.2-0.721 0.32-0.849 0.136-0.145 0.206-0.113 0.104 0.048zM44.148 10.784c-0.027 0.026-0.076-0.021-0.109-0.106-0.047-0.122-0.037-0.132 0.049-0.048 0.060 0.058 0.087 0.128 0.060 0.154zM37.897 11.142c-0.118 0.085-0.175 0.091-0.199 0.020-0.041-0.12 0.166-0.259 0.281-0.189 0.046 0.028 0.009 0.104-0.082 0.169zM29.411 11.341c-0.030 0.047-0.101 0.085-0.158 0.085-0.063-0.001-0.052-0.035 0.027-0.085 0.168-0.107 0.199-0.107 0.131 0zM28.053 11.55c0 0.021-0.039 0.062-0.088 0.091s-0.088 0.012-0.088-0.038 0.039-0.091 0.088-0.091c0.048 0 0.088 0.017 0.088 0.038zM34.584 12.275c-0.278 0.273-0.292 0.116-0.029-0.336 0.192-0.33 0.198-0.333 0.226-0.112 0.020 0.155-0.043 0.297-0.197 0.448zM27.942 12.177c0.177-0.173 0.294-0.342 0.261-0.374s-0.2 0.087-0.372 0.265c-0.406 0.423-0.308 0.52 0.111 0.109zM40.4 12.071c0.267 0.15 0.202 0.15-0.525 0.003l-0.569-0.115 0.438-0.005c0.241-0.003 0.536 0.050 0.657 0.117zM36.985 12.062c0 0.019-0.061 0.057-0.136 0.085-0.078 0.029-0.113 0.015-0.082-0.034 0.051-0.082 0.218-0.121 0.218-0.051zM39.825 12.248c0.172 0.032 0.313 0.092 0.313 0.134 0 0.14-0.391 0.077-0.657-0.105-0.145-0.099-0.196-0.159-0.116-0.133s0.288 0.073 0.46 0.105zM30.762 12.403c0.401-0.141 0.403-0.141 0.532 0.012 0.112 0.133 0.114 0.132-0.285 0.163-0.248 0.020-0.303 0.173-0.118 0.334 0.101 0.088 0.137 0.137 0.081 0.109s-0.207-0.004-0.335 0.053c-0.185 0.083-0.246 0.081-0.302-0.009-0.058-0.091-0.079-0.091-0.115 0.005-0.034 0.090-0.058 0.084-0.105-0.027-0.079-0.187 0.233-0.496 0.647-0.641zM19.738 12.71c-0.161 0.309-0.353 0.523-0.353 0.392 0-0.128 0.415-0.73 0.503-0.73 0.014 0-0.053 0.152-0.15 0.338zM34.095 12.544c0 0.047-0.033 0.086-0.074 0.086s-0.122 0.158-0.181 0.352c-0.059 0.194-0.124 0.336-0.145 0.315-0.062-0.061 0.235-0.839 0.321-0.839 0.044 0 0.079 0.039 0.079 0.086zM41.801 12.724c0.105 0.058 0.097 0.073-0.044 0.073-0.096-0-0.254-0.061-0.35-0.135-0.17-0.131-0.169-0.133 0.044-0.073 0.12 0.034 0.278 0.095 0.35 0.135zM26.416 12.979c0.038 0.145 0.025 0.158-0.076 0.076-0.068-0.055-0.102-0.135-0.075-0.177 0.071-0.113 0.1-0.095 0.152 0.101zM27.822 13.274c-0.028 0.071-0.090 0.129-0.139 0.129-0.051 0-0.043-0.055 0.020-0.129 0.060-0.071 0.123-0.129 0.139-0.129s0.008 0.058-0.020 0.129zM26.453 13.746c-0.323 0.364-0.355 0.395-0.31 0.302 0.023-0.047 0.112-0.236 0.198-0.42 0.114-0.245 0.175-0.302 0.23-0.216 0.048 0.077 0.007 0.193-0.118 0.334zM37.326 13.546c0.156-0.189 0.307-0.141 0.344 0.108 0.038 0.257-0.219 0.524-0.502 0.52l-0.227-0.003 0.241-0.194c0.239-0.192 0.346-0.474 0.131-0.348-0.072 0.042-0.067 0.013 0.013-0.084zM23.383 13.876c-0.442 0.416-0.846 0.525-0.846 0.228 0-0.258 0.292-0.452 0.645-0.429 0.174 0.012 0.365-0.026 0.423-0.083s0.124-0.103 0.147-0.103c0.023 0-0.143 0.174-0.369 0.387zM18.592 13.896c-0.513 0.546-0.951 0.728-0.57 0.236 0.123-0.159 0.224-0.327 0.224-0.374s0.128-0.102 0.285-0.121c0.157-0.019 0.302-0.041 0.324-0.048s-0.097 0.131-0.263 0.307zM7.126 14.447c0.699-0.113 3.065-0.114 3.608-0.002 0.902 0.187 1.555 0.549 2.215 1.229 0.874 0.899 1.020 1.199 1.073 2.207 0.028 0.525 0.005 0.947-0.063 1.16-0.166 0.526-0.468 1.264-0.591 1.45-0.062 0.093-0.113 0.238-0.113 0.322s-0.037 0.153-0.082 0.153c-0.045 0-0.105 0.070-0.132 0.157s-0.124 0.234-0.213 0.328c-0.089 0.094-0.231 0.313-0.315 0.486-0.197 0.408-1.402 1.629-1.798 1.822-0.169 0.082-0.386 0.22-0.483 0.307-0.344 0.308-1.382 0.682-1.986 0.716-0.088 0.005-0.153 0.048-0.144 0.095 0.040 0.207 0.521 0.908 1.188 1.729 0.944 1.162 1 1.228 1.206 1.428 0.243 0.236 1.595 1.098 1.722 1.098 0.057 0 0.167 0.056 0.244 0.125 0.217 0.193 1.115 0.391 1.773 0.391 1.005 0 1.701-0.356 2.145-1.096 0.374-0.624 0.531-0.386 0.195 0.295-0.224 0.454-0.724 0.931-1.311 1.249-1.186 0.643-3.277-0.015-5.236-1.648-0.97-0.808-2.157-2.411-2.391-3.228-0.104-0.364-0.158-0.433-0.357-0.455-0.217-0.025-0.244 0.009-0.374 0.473-0.077 0.275-0.181 0.596-0.231 0.714-0.136 0.321-0.789 2.828-0.901 3.458-0.073 0.412-0.339 0.576-0.582 0.36-0.203-0.18-0.219-0.603-0.045-1.203 0.067-0.233 0.148-0.628 0.178-0.876 0.056-0.453 1.057-3.855 1.182-4.017 0.037-0.047 0.134-0.299 0.217-0.559 0.201-0.631 0.618-1.7 0.788-2.020 0.076-0.142 0.138-0.324 0.138-0.405 0.001-0.263 0.428-1.237 1.321-3.011 0.672-1.335 1.022-1.683 1.283-1.273 0.154 0.242 0.061 0.498-0.857 2.369-0.649 1.323-1.546 3.459-1.658 3.948-0.084 0.368-0.15 0.551-0.413 1.148-0.207 0.469-0.136 0.575 0.369 0.547 1.463-0.080 2.842-0.944 4.011-2.513 0.697-0.935 1.393-2.605 1.514-3.633 0.117-0.987-0.464-2.141-1.367-2.714-1.101-0.698-2.963-0.817-4.597-0.294-0.502 0.161-1.896 0.778-1.967 0.871-0.026 0.034-0.224 0.174-0.441 0.312-0.838 0.532-0.995 0.648-1.414 1.043-0.238 0.224-0.491 0.518-0.562 0.653s-0.165 0.246-0.209 0.246-0.102 0.071-0.13 0.158c-0.028 0.087-0.173 0.29-0.321 0.451-0.344 0.373-0.978 1.673-1.17 2.399-0.081 0.307-0.169 0.932-0.196 1.388-0.040 0.699-0.017 0.927 0.145 1.452 0.311 1.005 0.767 1.609 1.453 1.928 0.475 0.22 0.616 0.389 0.327 0.389-0.083 0-0.443-0.144-0.801-0.319-0.73-0.358-1.436-1.085-1.546-1.588-0.034-0.156-0.091-0.323-0.126-0.37-0.172-0.232-0.309-1.018-0.299-1.719 0.012-0.808 0.359-2.287 0.705-3.008 0.357-0.742 1.178-1.853 1.91-2.583 0.376-0.375 1.053-0.898 1.162-0.898 0.051 0 0.106-0.031 0.122-0.069 0.033-0.078 0.82-0.618 0.9-0.618 0.028 0 0.199-0.089 0.378-0.198 0.373-0.227 1.052-0.489 1.264-0.489 0.079 0 0.156-0.038 0.172-0.084s0.246-0.119 0.511-0.162zM14.76 14.662c0.035 0.403 0.233 0.535 0.568 0.377 0.237-0.111 0.991-0.179 0.993-0.089 0 0.024 0.121 0.11 0.267 0.192 0.26 0.145 0.265 0.161 0.216 0.645-0.037 0.362-0.017 0.538 0.075 0.652 0.289 0.359 1.105 0.081 1.105-0.376 0-0.339-0.143-0.39-0.207-0.074-0.080 0.391-0.256 0.221-0.187-0.18 0.047-0.276 0.030-0.336-0.113-0.38-0.093-0.029-0.241-0.026-0.328 0.007-0.123 0.046-0.146 0.028-0.104-0.080 0.036-0.092-0.026-0.197-0.182-0.309-0.189-0.136-0.203-0.166-0.071-0.154 0.091 0.008 0.183-0.033 0.204-0.092 0.028-0.078-0.102-0.107-0.477-0.107-0.283 0-0.553-0.034-0.598-0.076s-0.172-0.103-0.28-0.135c-0.154-0.046-0.197-0.024-0.197 0.099 0 0.22-0.346 0.429-0.448 0.271-0.116-0.179-0.091-0.314 0.076-0.409 0.131-0.075 0.117-0.088-0.093-0.090-0.23-0.002-0.244 0.018-0.219 0.311zM31.906 14.77c0 0.043 0.121 0.119 0.269 0.17s0.245 0.131 0.214 0.179c-0.032 0.051 0.001 0.066 0.081 0.036 0.075-0.028 0.136-0.011 0.136 0.038s0.089 0.106 0.197 0.126c0.108 0.021 0.020 0.042-0.197 0.047-0.364 0.009-0.413-0.016-0.64-0.332-0.136-0.188-0.204-0.342-0.153-0.342s0.093 0.035 0.093 0.077zM33.132 14.891c0.129 0.001 0.271 0.136 0.438 0.416 0.069 0.116 0.053 0.134-0.088 0.098-0.095-0.024-0.147-0.085-0.116-0.134s0.017-0.065-0.032-0.036c-0.091 0.055-0.69-0.21-0.853-0.379-0.068-0.070-0.011-0.079 0.214-0.031 0.169 0.036 0.366 0.065 0.438 0.066zM20.238 15.268c0.462-0.119 1.248 0.065 1.248 0.292 0 0.056-0.181 0.275-0.402 0.486l-0.402 0.383 0.276-0.060c0.189-0.041 0.322-0.020 0.423 0.066 0.081 0.069 0.246 0.148 0.367 0.176 0.253 0.059 0.54-0.075 0.383-0.178-0.168-0.111-0.238-0.451-0.093-0.451 0.144 0 0.41 0.358 0.41 0.551 0 0.173-0.102 0.222-0.543 0.259-0.207 0.017-0.446 0.059-0.53 0.093-0.208 0.083-0.445-0.018-0.387-0.164 0.056-0.143-0.478-0.251-0.566-0.115-0.114 0.175-0.514-0.028-0.737-0.375-0.123-0.192-0.241-0.394-0.262-0.45-0.067-0.18 0.111-0.339 0.389-0.349 0.149-0.005 0.272-0.036 0.272-0.068s0.069-0.076 0.153-0.097zM29.114 15.491c-0.071 0.070-0.126 0.065-0.207-0.020-0.066-0.070-0.070-0.094-0.009-0.061 0.055 0.030 0.129-0.012 0.163-0.095 0.047-0.111 0.074-0.12 0.107-0.035 0.024 0.063-0 0.158-0.054 0.211zM24.483 15.709c0.311 0.139 0.427 0.245 0.467 0.423 0.029 0.13 0.068 0.285 0.087 0.344 0.063 0.201-0.093 0.108-0.355-0.213-0.144-0.176-0.38-0.435-0.525-0.574s-0.223-0.234-0.175-0.21c0.048 0.024 0.274 0.128 0.502 0.23zM21.574 15.621c0-0.105 0.2-0.077 0.372 0.051 0.196 0.146 0.195 0.224-0.004 0.224-0.162 0-0.368-0.154-0.368-0.275zM17.217 15.939c-0.048 0.244-0.152 0.28-0.231 0.078-0.065-0.166 0.004-0.293 0.159-0.293 0.074 0 0.1 0.075 0.072 0.215zM50.25 16.149c-0.165 0.066-0.941 0.774-1.142 1.043-0.050 0.067-0.181 0.316-0.291 0.552s-0.313 0.642-0.453 0.902c-0.667 1.245-1.278 2.628-1.54 3.481-0.219 0.714-0.497 1.365-0.664 1.553-0.087 0.098-0.157 0.205-0.157 0.238 0 0.112-0.916 1.385-1.262 1.754-0.224 0.239-0.417 0.365-0.557 0.365-0.164 0-0.204-0.036-0.169-0.15 0.026-0.083 0.13-0.46 0.232-0.838 0.195-0.721 0.504-1.563 0.637-1.733 0.118-0.152 0.594-1.564 0.594-1.763 0-0.242-0.548-0.759-0.801-0.755-0.44 0.006-1.1 0.574-1.766 1.516-0.228 0.323-0.619 0.877-0.869 1.231-0.307 0.435-0.465 0.597-0.485 0.497-0.030-0.146 0.489-1.277 0.87-1.898 0.155-0.251 0.179-0.359 0.107-0.473-0.13-0.203-0.562-0.222-0.787-0.035-0.202 0.169-0.751 1.136-0.906 1.598-0.174 0.517-1.633 1.768-2.263 1.939-0.739 0.201-1.155 0.060-1.414-0.481-0.193-0.402-0.231-0.919-0.094-1.272 0.076-0.196 0.134-0.22 0.522-0.22 0.24 0 0.651-0.079 0.913-0.175 0.39-0.143 0.534-0.257 0.791-0.624 0.83-1.183-0.068-2.044-1.431-1.371-0.582 0.287-1.116 0.782-1.198 1.111-0.095 0.378-0.615 1.274-0.739 1.274-0.061 0-0.128 0.058-0.147 0.129-0.032 0.115-0.026 0.115 0.057 0 0.051-0.071 0.093-0.097 0.094-0.059s-0.097 0.197-0.218 0.352-0.219 0.31-0.219 0.345c0 0.035-0.187 0.311-0.416 0.613s-0.527 0.706-0.662 0.896c-0.176 0.247-0.309 0.345-0.466 0.345-0.168 0-0.209-0.035-0.174-0.15 0.025-0.083 0.148-0.537 0.274-1.010 0.279-1.049 0.432-1.501 0.647-1.917 0.091-0.175 0.232-0.58 0.314-0.901l0.149-0.583-0.231-0.297c-0.127-0.163-0.323-0.32-0.436-0.348-0.275-0.067-0.847 0.227-1.268 0.653-0.345 0.349-1.259 1.644-1.406 1.993-0.117 0.276-0.633 0.849-0.564 0.626 0.132-0.429 0.263-0.743 0.627-1.502 0.421-0.879 0.42-1.053-0.008-1.104-0.174-0.020-0.308 0.051-0.535 0.288-0.167 0.173-0.327 0.389-0.356 0.478s-0.084 0.163-0.123 0.163-0.162 0.28-0.274 0.623c-0.194 0.595-0.575 1.369-1.016 2.061-0.112 0.176-0.204 0.354-0.204 0.394 0 0.126-0.507 0.524-0.741 0.581-0.447 0.11-0.634-0.012-0.751-0.491-0.173-0.709-0.057-1.601 0.309-2.357 0.342-0.707 0.372-0.879 0.168-0.956-0.11-0.041-0.128-0.129-0.085-0.412 0.063-0.41-0.127-0.727-0.568-0.95-0.45-0.228-0.803-0.163-1.381 0.254-0.577 0.416-1.153 1.247-1.381 1.99-0.068 0.222-0.159 0.446-0.203 0.499s-0.129 0.26-0.189 0.461c-0.061 0.201-0.144 0.365-0.184 0.365s-0.074 0.055-0.074 0.123c0 0.067-0.056 0.178-0.125 0.245s-0.206 0.254-0.305 0.414c-0.3 0.486-1.067 1.194-1.293 1.194-0.112 0-0.203-0.048-0.203-0.107 0.001-0.201 0.771-2.427 1.079-3.116 0.548-1.23 0.61-1.822 0.229-2.196-0.235-0.23-0.564-0.209-0.922 0.059-0.296 0.222-0.824 0.906-0.824 1.067 0 0.045-0.039 0.082-0.088 0.082s-0.088 0.051-0.088 0.113-0.057 0.188-0.127 0.279c-0.070 0.092-0.005-0.15 0.145-0.536 0.246-0.637 0.261-0.729 0.157-0.974-0.239-0.565-0.796-0.513-1.376 0.128-0.382 0.422-0.558 0.71-1.158 1.893-0.24 0.473-0.437 0.818-0.439 0.768-0.010-0.285 0.575-1.783 0.963-2.464 0.167-0.294 0.025-0.555-0.38-0.697-0.276-0.096-0.791 0.608-1.216 1.662-0.209 0.519-0.32 0.66-0.756 0.959-0.396 0.272-1.092 0.505-1.197 0.401-0.018-0.018 0.044-0.319 0.137-0.669s0.17-0.872 0.17-1.16c0-0.457-0.032-0.558-0.251-0.794-0.284-0.305-0.846-0.506-1.184-0.423-0.559 0.138-1.015 0.792-1.016 1.459-0 0.14-0.1 0.361-0.233 0.516-1.054 1.224-0.762 2.978 0.496 2.978 0.377 0 0.447-0.034 0.766-0.374 0.193-0.206 0.443-0.53 0.555-0.721 0.187-0.318 0.24-0.351 0.659-0.399 0.265-0.031 0.694-0.177 1.026-0.349l0.57-0.297-0.047 0.45c-0.071 0.674 0.111 1.42 0.375 1.538 0.117 0.052 0.223 0.079 0.236 0.059 0.052-0.076 0.411-0.83 0.583-1.226 0.1-0.23 0.257-0.512 0.35-0.627s0.194-0.325 0.225-0.465c0.031-0.14 0.093-0.233 0.136-0.206s0.058-0.007 0.032-0.074c-0.052-0.132 0.812-1.44 0.989-1.497 0.059-0.019-0.071 0.335-0.289 0.786s-0.421 0.909-0.451 1.016c-0.099 0.351-0.069 0.983 0.053 1.128 0.187 0.221 0.511 0.176 0.681-0.095 0.082-0.13 0.326-0.507 0.543-0.837s0.505-0.807 0.64-1.060c0.135-0.252 0.324-0.567 0.42-0.698 0.181-0.25 0.603-0.562 0.67-0.496 0.032 0.031-0.562 1.355-0.843 1.877-0.041 0.077-0.103 0.29-0.136 0.473s-0.089 0.372-0.123 0.419c-0.059 0.082-0.196 0.83-0.307 1.681-0.045 0.343-0.018 0.436 0.218 0.756 0.305 0.413 0.433 0.484 0.74 0.408 0.421-0.104 1.599-1.465 1.905-2.201l0.124-0.298 0.095 0.267c0.052 0.147 0.238 0.408 0.413 0.579 0.432 0.424 0.859 0.436 1.248 0.033 0.148-0.154 0.332-0.395 0.408-0.537l0.138-0.258 0.003 0.393c0.009 1.033 0.455 1.63 1.262 1.692 0.651 0.050 0.994-0.22 1.665-1.313 0.217-0.353 0.316-0.457 0.316-0.331 0.001 0.446 0.76 0.576 1.084 0.187 0.365-0.44 0.492-0.62 0.492-0.701 0-0.045 0.15-0.279 0.334-0.52s0.566-0.747 0.85-1.125c0.444-0.592 1.048-1.246 1.149-1.246s-0.003 0.408-0.225 0.877c-0.839 1.77-1.099 2.718-0.917 3.345 0.108 0.371 0.582 0.647 0.954 0.556 0.34-0.084 0.961-0.714 1.575-1.598 0.456-0.655 0.779-1.070 0.63-0.808-0.117 0.206 0.466 1.371 0.727 1.453 0.097 0.030 0.176 0.088 0.176 0.129s0.221 0.119 0.492 0.174c0.527 0.107 1.187 0.052 1.369-0.115 0.061-0.056 0.301-0.232 0.532-0.391s0.57-0.446 0.753-0.639l0.333-0.35v0.445c0 0.508 0.102 0.67 0.473 0.75 0.322 0.069 0.483-0.059 0.979-0.776 0.196-0.284 0.497-0.694 0.668-0.912s0.371-0.483 0.443-0.589c0.285-0.418 0.799-1.077 1.051-1.349 0.503-0.542 0.491-0.337-0.047 0.806-0.116 0.247-0.237 0.556-0.268 0.688s-0.104 0.316-0.162 0.411c-0.128 0.208-0.284 0.8-0.356 1.349-0.113 0.863 0.27 1.433 0.887 1.319 0.41-0.075 0.819-0.451 1.483-1.363l0.563-0.773v0.699c0 0.64 0.017 0.71 0.207 0.832 0.114 0.073 0.262 0.112 0.33 0.086s0.238-0.401 0.378-0.834c0.279-0.863 0.274-0.865 0.526 0.146 0.185 0.74 0.48 1.357 0.858 1.792 0.368 0.424 0.894 0.514 1.429 0.247 0.288-0.145 1.263-1.055 1.263-1.18 0-0.021 0.144-0.26 0.321-0.531 0.222-0.341 0.337-0.453 0.372-0.364 0.184 0.46 0.536 0.681 1.084 0.681 0.352 0 0.425-0.039 0.793-0.425 0.223-0.234 0.47-0.558 0.548-0.72 0.128-0.263 0.19-0.3 0.576-0.345 0.238-0.028 0.657-0.153 0.93-0.278 0.512-0.234 1.242-0.847 1.242-1.044 0-0.18-0.358-0.127-0.562 0.082-0.479 0.493-0.86 0.736-1.244 0.792-0.219 0.032-0.419 0.039-0.444 0.014s0.017-0.211 0.093-0.415c0.217-0.582 0.324-1.361 0.236-1.731-0.1-0.423-0.287-0.62-0.757-0.796-0.522-0.196-0.889-0.111-1.295 0.296-0.283 0.284-0.336 0.401-0.38 0.837-0.039 0.386-0.11 0.573-0.296 0.783-0.25 0.283-0.606 0.985-0.606 1.196 0 0.137-0.224 0.563-0.492 0.934-0.102 0.142-0.21 0.335-0.241 0.429-0.098 0.305-1.187 1.306-1.507 1.384-0.462 0.114-0.813-0.27-0.951-1.041-0.034-0.189-0.114-0.498-0.177-0.688s-0.142-0.505-0.175-0.701c-0.054-0.324-0.041-0.363 0.143-0.418 0.595-0.176 1.010-0.448 1.568-1.025 0.275-0.285 0.606-1.058 0.606-1.417 0-0.297-0.245-0.521-0.568-0.521-0.298 0-1.063 0.543-1.418 1.006-0.135 0.176-0.307 0.381-0.381 0.456s-0.307 0.376-0.517 0.67c-0.21 0.294-0.395 0.523-0.41 0.509s0.029-0.237 0.097-0.495c0.086-0.325 0.198-0.521 0.364-0.641 0.132-0.095 0.419-0.346 0.639-0.558s0.483-0.444 0.585-0.516c0.563-0.392 1.937-2.364 2.247-3.224 0.408-1.131 0.397-1.422-0.069-1.879-0.153-0.15-0.74-0.184-1.051-0.060zM35.811 16.376l0.254 0.222-0.372-0.181c-0.384-0.187-0.458-0.263-0.254-0.263 0.065 0 0.232 0.1 0.372 0.222zM51.080 17.121c-0.003 0.62-0.361 1.406-1.196 2.626-0.663 0.969-1.785 2.193-1.846 2.013-0.027-0.080 0.114-0.447 0.585-1.524 0.083-0.189 0.224-0.518 0.314-0.731s0.208-0.445 0.263-0.516c0.055-0.071 0.235-0.395 0.399-0.72 0.297-0.586 1.168-1.601 1.375-1.601 0.071 0 0.106 0.151 0.105 0.451zM25.598 17.21c0.159 0.132 0.267 0.261 0.24 0.287-0.076 0.075-0.273-0.070-0.595-0.437-0.302-0.345-0.175-0.291 0.355 0.15zM26.51 17.541c0.096 0.088 0.227 0.16 0.29 0.16s0.115 0.080 0.115 0.179c0 0.154-0.068 0.122-0.482-0.225-0.265-0.222-0.482-0.42-0.482-0.439 0-0.061 0.374 0.158 0.558 0.326zM49.935 21.79c-0.336 0.548-0.998 1.173-1.492 1.407l-0.332 0.157 0.238-0.313c0.131-0.172 0.288-0.364 0.348-0.427s0.109-0.142 0.109-0.176c0-0.201 1.273-1.283 1.383-1.175 0.023 0.023-0.091 0.26-0.254 0.526zM15.978 21.547c0.084 0.216 0.076 0.468-0.033 1.053-0.076 0.405-0.256 0.988-0.336 1.084-0.136 0.163-0.522 0.030-0.619-0.214-0.127-0.32-0.155-1.010-0.054-1.375 0.108-0.394 0.478-0.784 0.745-0.784 0.143 0 0.233 0.072 0.297 0.236zM54.602 21.611c0.039 0.142 0.047 0.432 0.018 0.645-0.065 0.468-0.371 1.443-0.472 1.504-0.040 0.024-0.167 0.009-0.283-0.034-0.21-0.078-0.418-0.546-0.418-0.939 0-0.415 0.202-1.050 0.401-1.261 0.295-0.313 0.654-0.272 0.754 0.085zM27.774 21.766c0.029 0.348-0.114 0.808-0.52 1.666-0.138 0.292-0.252 0.567-0.252 0.61 0 0.125-0.842 1.051-0.954 1.049-0.193-0.005-0.305-0.209-0.337-0.614-0.030-0.374 0.013-0.574 0.233-1.078 0.395-0.904 0.643-1.336 0.974-1.693 0.235-0.254 0.348-0.312 0.561-0.292 0.24 0.023 0.269 0.058 0.294 0.352zM39.086 21.685c0 0.205-0.074 0.36-0.257 0.537-0.467 0.452-0.601 0.526-1.168 0.636-0.309 0.060-0.327 0.052-0.276-0.118 0.091-0.303 0.507-0.767 0.951-1.063 0.558-0.371 0.75-0.369 0.75 0.009zM14.892 23.838c0.512 0.272 0.507 0.251 0.17 0.768-0.297 0.456-0.663 0.692-0.826 0.532-0.134-0.131-0.060-1.122 0.108-1.454 0.152-0.302 0.175-0.317 0.236-0.155 0.037 0.098 0.178 0.238 0.313 0.309zM53.757 23.975c0.194 0 0.241 0.173 0.092 0.334-0.077 0.084-0.14 0.184-0.14 0.223s-0.101 0.2-0.223 0.359c-0.24 0.309-0.477 0.366-0.654 0.157-0.144-0.17-0.065-1.018 0.13-1.392l0.144-0.277 0.267 0.298c0.147 0.164 0.319 0.298 0.384 0.298zM26.537 28.414c-0.033 0.032-0.060 0.285-0.060 0.562v0.504l-0.241-0.122c-0.764-0.388-1.497-0.016-1.577 0.798-0.049 0.499 0.158 0.862 0.592 1.038 0.321 0.13 0.835 0.064 1.062-0.138 0.156-0.139 0.164-0.136 0.164 0.046 0 0.116 0.044 0.178 0.109 0.157 0.080-0.026 0.116-0.402 0.134-1.397 0.022-1.248-0.023-1.605-0.183-1.448zM29.017 28.959v0.615l-0.231-0.178c-0.155-0.12-0.359-0.178-0.622-0.178-0.328 0-0.439 0.047-0.689 0.292-0.262 0.257-0.298 0.346-0.298 0.739 0 0.389 0.035 0.479 0.273 0.697 0.15 0.138 0.367 0.273 0.482 0.302 0.329 0.081 0.803-0.042 0.95-0.248 0.134-0.188 0.134-0.187 0.134 0.054 0 0.155 0.039 0.228 0.109 0.205 0.157-0.051 0.156-2.828-0.001-2.879-0.080-0.026-0.109 0.127-0.109 0.579zM20.301 28.552c0.078-0.205 0.194-0.105 0.301 0.258 0.059 0.201 0.181 0.559 0.272 0.795s0.232 0.615 0.314 0.842 0.178 0.381 0.213 0.344c0.035-0.038 0.21-0.513 0.389-1.057 0.375-1.14 0.476-1.356 0.48-1.022 0.001 0.123-0.138 0.646-0.31 1.16-0.367 1.101-0.495 1.409-0.583 1.409-0.070 0-0.28-0.442-0.469-0.988-0.25-0.722-0.45-1.251-0.488-1.288-0.033-0.033-0.565 1.48-0.733 2.083-0.072 0.261-0.201 0.244-0.316-0.043-0.153-0.382-0.864-2.412-0.864-2.465 0-0.027 0.051-0.049 0.112-0.049s0.165 0.184 0.23 0.408 0.167 0.524 0.226 0.666c0.059 0.142 0.177 0.488 0.261 0.77 0.141 0.47 0.164 0.498 0.275 0.349 0.067-0.090 0.121-0.231 0.121-0.314 0-0.121 0.381-1.369 0.567-1.857zM29.848 28.53c0.095-0.151 0.306-0.092 0.306 0.086 0 0.095-0.057 0.172-0.126 0.172-0.155 0-0.254-0.141-0.18-0.258zM52.659 28.616c0-0.129 0.046-0.176 0.153-0.156 0.084 0.016 0.153 0.086 0.153 0.156s-0.069 0.14-0.153 0.156c-0.108 0.020-0.153-0.026-0.153-0.156zM23.369 29.195c-0.656 0.122-1.005 0.552-0.959 1.181 0.027 0.378 0.381 0.77 0.784 0.869 0.296 0.073 0.789-0.025 0.923-0.184 0.166-0.196 0.043-0.239-0.254-0.088-0.147 0.074-0.338 0.135-0.426 0.135-0.253 0-0.813-0.416-0.813-0.605 0-0.157 0.064-0.169 0.876-0.169 0.85 0 0.876-0.006 0.875-0.193-0.001-0.463-0.597-1.023-1.007-0.947zM30.943 30.201c0-0.698 0.031-1.061 0.088-1.026 0.048 0.029 0.088 0.106 0.088 0.17 0 0.096 0.050 0.093 0.271-0.015 0.368-0.18 0.94-0.101 1.139 0.157 0.118 0.153 0.147 0.356 0.136 0.951-0.018 1.001-0.176 0.985-0.232-0.023-0.036-0.644-0.074-0.803-0.214-0.904-0.266-0.19-0.565-0.144-0.844 0.13-0.241 0.236-0.256 0.293-0.256 0.945 0 0.406-0.036 0.694-0.088 0.694-0.054 0-0.088-0.417-0.088-1.079zM37.554 29.196c-0.444 0.085-0.744 0.218-0.744 0.33 0 0.151 0.071 0.15 0.35-0.007 0.478-0.268 1.051-0.025 1.051 0.446 0 0.188-0.032 0.199-0.599 0.199-0.469 0-0.631 0.034-0.744 0.157-0.488 0.529 0.358 1.198 1.073 0.848 0.229-0.112 0.27-0.114 0.27-0.010 0 0.067 0.039 0.122 0.088 0.122 0.052 0 0.088-0.339 0.088-0.846 0-0.699-0.027-0.869-0.153-0.977-0.236-0.202-0.486-0.298-0.679-0.262zM39.364 29.332c0.335-0.192 0.821-0.167 1.125 0.059 0.291 0.216 0.14 0.333-0.19 0.148-0.36-0.203-0.633-0.187-0.919 0.054-0.203 0.172-0.241 0.27-0.241 0.637 0 0.457 0.154 0.745 0.359 0.668 0.067-0.025 0.099-0.010 0.072 0.033s0.027 0.103 0.12 0.132c0.139 0.043 0.465-0.057 0.905-0.28 0.036-0.018 0.066 0.027 0.066 0.101 0 0.178-0.445 0.396-0.808 0.396-0.359 0-0.626-0.175-0.806-0.53-0.153-0.3-0.186-0.931-0.050-0.931 0.048 0 0.088-0.074 0.088-0.164 0-0.093 0.119-0.233 0.278-0.323zM41.402 29.374c0.204-0.186 0.284-0.205 0.628-0.154 0.369 0.055 0.738 0.28 0.632 0.385-0.026 0.026-0.162-0.012-0.301-0.083-0.402-0.206-0.691-0.165-0.947 0.134-0.325 0.379-0.313 0.867 0.029 1.203 0.301 0.296 0.474 0.312 0.863 0.079 0.343-0.205 0.37-0.209 0.37-0.045 0 0.166-0.446 0.389-0.777 0.389-0.357 0-0.775-0.365-0.887-0.777-0.11-0.401 0.028-0.801 0.39-1.13zM43.482 29.318c-0.255 0.158-0.543 0.689-0.543 0.997 0.001 0.263 0.34 0.705 0.653 0.852 0.259 0.121 0.358 0.126 0.662 0.037 0.197-0.058 0.38-0.163 0.408-0.233 0.084-0.216-0.038-0.235-0.285-0.044-0.129 0.1-0.286 0.182-0.348 0.182-0.207 0-0.635-0.293-0.781-0.535l-0.144-0.239h0.84c0.932 0 1.027-0.058 0.836-0.511-0.233-0.551-0.842-0.789-1.298-0.506zM45.465 29.328c0.142-0.119 0.302-0.175 0.427-0.15 0.11 0.022 0.298 0.060 0.418 0.085 0.155 0.032 0.219 0.1 0.218 0.236-0.001 0.143-0.021 0.162-0.078 0.073-0.128-0.198-0.756-0.196-0.939 0.002-0.222 0.241-0.070 0.433 0.458 0.577 0.562 0.154 0.76 0.328 0.692 0.61-0.074 0.309-0.364 0.519-0.716 0.519-0.324 0-0.818-0.209-0.818-0.346 0-0.118 0.106-0.105 0.432 0.055 0.37 0.181 0.824 0.073 0.865-0.206 0.031-0.208-0.108-0.29-0.754-0.451-0.592-0.147-0.686-0.605-0.207-1.005zM47.542 29.224c0.358-0.060 0.838 0.070 0.897 0.243 0.035 0.103-0.266 0.131-0.365 0.034-0.034-0.033-0.167-0.074-0.295-0.091-0.592-0.078-0.893 0.486-0.351 0.659 0.157 0.050 0.368 0.103 0.47 0.118 0.336 0.048 0.581 0.269 0.581 0.525 0 0.308-0.175 0.477-0.556 0.537-0.589 0.094-1.297-0.233-0.954-0.441 0.048-0.029 0.088-0.018 0.088 0.024s0.152 0.127 0.339 0.187c0.28 0.091 0.383 0.089 0.591-0.009 0.426-0.201 0.334-0.437-0.229-0.589-0.625-0.168-0.762-0.254-0.83-0.521-0.079-0.312 0.187-0.604 0.617-0.676zM49.594 29.217c-0.615 0.111-0.876 0.418-0.876 1.032 0 0.472 0.151 0.742 0.506 0.908 0.439 0.204 0.947 0.12 1.261-0.21 0.208-0.218 0.246-0.331 0.244-0.715-0.003-0.5-0.129-0.706-0.569-0.935-0.174-0.091-0.361-0.117-0.567-0.080zM51.706 29.315c0.317-0.182 0.439-0.189 0.494-0.027 0.019 0.056-0.040 0.102-0.131 0.102s-0.272 0.108-0.401 0.241c-0.216 0.222-0.235 0.298-0.235 0.945 0 0.412-0.036 0.704-0.088 0.704-0.054 0-0.088-0.401-0.088-1.031 0-0.85 0.023-1.031 0.129-1.031 0.080 0 0.109 0.050 0.077 0.133-0.042 0.108 0.005 0.101 0.244-0.036zM52.727 29.24c0.021-0.059 0.073-0.086 0.116-0.059 0.105 0.064 0.102 2.1-0.003 2.1-0.045 0-0.106-0.077-0.137-0.171-0.059-0.182-0.040-1.691 0.024-1.87zM53.953 29.313c-0.256 0.129-0.345 0.239-0.423 0.525-0.199 0.727 0.097 1.312 0.714 1.41 0.367 0.058 0.954-0.157 0.954-0.351 0-0.175-0.046-0.169-0.344 0.048-0.187 0.135-0.317 0.166-0.518 0.123-0.356-0.077-0.714-0.362-0.714-0.568 0-0.152 0.069-0.166 0.835-0.166 0.957 0 1.032-0.056 0.772-0.577-0.124-0.249-0.252-0.357-0.557-0.466-0.375-0.135-0.411-0.134-0.719 0.021zM29.892 30.256c0-0.875 0.021-1.038 0.134-1.038 0.114 0 0.13 0.149 0.109 1.003-0.017 0.708-0.057 1.013-0.134 1.039-0.084 0.027-0.109-0.21-0.109-1.003zM33.778 29.303c-0.308 0.122-0.558 0.548-0.558 0.95 0 0.307 0.050 0.409 0.323 0.662 0.291 0.269 0.361 0.295 0.706 0.256 0.235-0.026 0.471-0.121 0.609-0.246l0.226-0.203-0.060 0.382c-0.073 0.463-0.154 0.569-0.535 0.692-0.247 0.080-0.353 0.067-0.666-0.081-0.444-0.211-0.427-0.209-0.427-0.051 0 0.195 0.339 0.327 0.859 0.335 0.428 0.006 0.499-0.020 0.727-0.271 0.252-0.276 0.253-0.285 0.253-1.394 0-0.884-0.025-1.116-0.119-1.116-0.079 0-0.109 0.079-0.087 0.236 0.018 0.13 0.009 0.187-0.020 0.127-0.138-0.289-0.815-0.443-1.229-0.279zM55.833 29.408c0.175-0.185 0.249-0.203 0.669-0.161 0.461 0.046 0.715 0.167 0.595 0.284-0.033 0.032-0.211 0.009-0.396-0.051-0.402-0.13-0.619-0.1-0.749 0.103-0.179 0.279 0.093 0.532 0.669 0.622 0.713 0.112 0.739 0.856 0.036 1.027-0.367 0.089-1.022-0.076-1.088-0.275-0.049-0.147 0.246-0.131 0.455 0.024 0.235 0.175 0.517 0.158 0.762-0.046l0.207-0.172-0.207-0.172c-0.114-0.095-0.283-0.172-0.376-0.172s-0.281-0.057-0.418-0.126c-0.407-0.207-0.471-0.559-0.16-0.888zM23.767 29.5c0.159 0.123 0.434 0.501 0.434 0.597 0 0.037-0.355 0.067-0.788 0.067-0.441 0-0.788-0.036-0.788-0.082 0-0.488 0.762-0.876 1.142-0.581zM26.027 29.512c0.665 0.337 0.559 1.308-0.164 1.511-0.341 0.096-0.619-0.003-0.862-0.307-0.273-0.34-0.239-0.659 0.108-1.020 0.319-0.332 0.54-0.376 0.918-0.184zM28.448 29.476c0.35 0.131 0.493 0.313 0.545 0.693 0.038 0.281 0.010 0.384-0.155 0.556-0.297 0.31-0.751 0.412-1.054 0.237-0.561-0.326-0.566-1.086-0.009-1.426 0.276-0.168 0.364-0.176 0.673-0.061zM34.769 29.671c0.184 0.184 0.249 0.426 0.212 0.793-0.025 0.247-0.59 0.58-0.876 0.516-0.276-0.062-0.565-0.286-0.649-0.503-0.034-0.088-0.021-0.31 0.029-0.493 0.161-0.586 0.843-0.752 1.284-0.312zM44.184 29.48c0.212 0.095 0.527 0.548 0.44 0.634-0.028 0.027-0.359 0.049-0.736 0.049-0.596 0-0.686-0.020-0.683-0.15 0.003-0.184 0.157-0.387 0.391-0.519 0.221-0.124 0.335-0.127 0.588-0.013zM50.233 29.629c0.336 0.344 0.391 0.717 0.153 1.045-0.271 0.374-0.47 0.459-0.84 0.359-0.385-0.104-0.647-0.404-0.647-0.74 0.001-0.76 0.834-1.174 1.333-0.663zM54.855 29.641c0.444 0.435 0.362 0.522-0.488 0.522-0.652 0-0.744-0.019-0.741-0.15 0.003-0.173 0.249-0.487 0.438-0.56 0.291-0.112 0.548-0.051 0.792 0.188zM38.211 30.5c0 0.182-0.467 0.609-0.665 0.609-0.141 0-0.488-0.175-0.572-0.289-0.090-0.121 0.018-0.387 0.173-0.427 0.079-0.021 0.351-0.042 0.604-0.048 0.398-0.009 0.46 0.012 0.46 0.154z"></path>
</symbol>
<symbol id="icon-logo1" viewBox="0 0 57 32">
<path d="M54.128 0.159c-0.064 0.090-0.214 0.177-0.333 0.193-0.191 0.026-0.222 0.082-0.26 0.47-0.035 0.349-0.111 0.518-0.372 0.817-0.18 0.207-0.328 0.408-0.328 0.447s-0.105-0.010-0.233-0.109c-0.273-0.211-0.489-0.172-0.84 0.15-0.272 0.25-0.3 0.412-0.108 0.62 0.12 0.13 0.103 0.182-0.175 0.539-0.169 0.217-0.307 0.45-0.307 0.516s-0.079 0.191-0.175 0.276c-0.171 0.152-0.175 0.15-0.175-0.105 0-0.32-0.155-0.456-0.589-0.513-0.41-0.054-0.7 0.15-0.777 0.546-0.041 0.21-0.013 0.306 0.126 0.423 0.165 0.139 0.169 0.17 0.051 0.394-0.071 0.134-0.16 0.243-0.199 0.243s-0.116 0.097-0.171 0.215c-0.076 0.163-0.075 0.215 0.004 0.215 0.057 0 0.012 0.068-0.099 0.15s-0.267 0.223-0.346 0.311c-0.506 0.566-1.15 1.085-1.704 1.375-0.388 0.203-0.584 0.204-0.254 0.001 0.085-0.052 0.247-0.27 0.359-0.483 0.188-0.359 0.233-0.391 0.608-0.433 0.723-0.080 1.037-0.701 0.58-1.149-0.166-0.163-0.29-0.21-0.48-0.183-0.203 0.029-0.236 0.014-0.16-0.076 0.052-0.062 0.136-0.088 0.187-0.057 0.052 0.032 0.065 0.014 0.030-0.042-0.098-0.156 0.2-0.516 0.477-0.576 0.285-0.061 0.326-0.106 0.435-0.482 0.065-0.222 0.043-0.296-0.142-0.478-0.123-0.121-0.276-0.194-0.348-0.166-0.105 0.039-0.112 0.016-0.037-0.121 0.051-0.093 0.141-0.171 0.199-0.173s0.18-0.102 0.27-0.223c0.133-0.179 0.145-0.259 0.066-0.429-0.133-0.286-0.304-0.331-0.58-0.154-0.198 0.127-0.229 0.203-0.209 0.501 0.013 0.193-0.026 0.519-0.087 0.725-0.103 0.35-0.12 0.365-0.264 0.236-0.197-0.175-0.483-0.176-0.66-0.002-0.17 0.167-0.181 0.754-0.016 0.888 0.096 0.078 0.103 0.177 0.034 0.462-0.048 0.199-0.090 0.411-0.092 0.47-0.006 0.144-0.105 0.136-0.238-0.021-0.169-0.199-0.469-0.153-0.728 0.112-0.23 0.236-0.322 0.618-0.148 0.618 0.048 0 0.088 0.075 0.088 0.167s0.086 0.226 0.192 0.299c0.161 0.111 0.188 0.202 0.169 0.564-0.020 0.368 0 0.432 0.136 0.433 0.345 0.004-1.686 1.667-2.117 1.733-0.096 0.015-0.195 0.047-0.219 0.072-0.103 0.105-0.545 0.254-0.62 0.209-0.045-0.027-0.081-0.013-0.081 0.032s-0.084 0.103-0.186 0.129l-0.186 0.048 0.187-0.171c0.103-0.094 0.227-0.147 0.276-0.117 0.212 0.129 1.318-0.738 1.368-1.071 0.010-0.068 0.042-0.214 0.070-0.324s0.007-0.281-0.047-0.38c-0.084-0.154-0.156-0.174-0.49-0.137-0.513 0.057-0.871 0.384-0.951 0.869-0.121 0.734-0.547 1.375-0.96 1.443-0.096 0.016-0.195 0.049-0.219 0.072s-0.201 0.097-0.394 0.163c-0.193 0.066-0.498 0.211-0.679 0.323s-0.328 0.184-0.328 0.161c0-0.080-1.1 0.419-1.708 0.775-0.337 0.197-0.711 0.386-0.832 0.42-0.581 0.162-0.579 0.163-0.278-0.131 0.37-0.362 0.53-0.668 0.597-1.141 0.061-0.438-0.066-0.58-0.267-0.299-0.074 0.104-0.154 0.171-0.178 0.148s0.055-0.152 0.173-0.287c0.118-0.135 0.215-0.298 0.215-0.362 0-0.27-0.862-0.043-1.24 0.328-0.329 0.321-0.595 0.932-0.506 1.16 0.047 0.122 0.042 0.216-0.015 0.25-0.050 0.030-0.071 0.105-0.046 0.167 0.056 0.144-0.504 0.728-0.927 0.967-0.179 0.101-0.466 0.21-0.638 0.242s-0.441 0.143-0.598 0.248c-0.157 0.105-0.415 0.235-0.573 0.289l-0.288 0.098 0.248-0.242c0.136-0.133 0.381-0.406 0.544-0.607 0.273-0.337 0.319-0.361 0.6-0.309 0.44 0.081 0.987-0.278 0.987-0.648 0-0.332-0.373-0.723-0.618-0.648-0.094 0.028-0.257 0.078-0.363 0.109-0.413 0.123 0.522-0.682 0.955-0.823 0.445-0.145 0.589-0.4 0.371-0.657-0.252-0.298-0.872-0-0.872 0.418 0 0.11-0.12 0.311-0.27 0.451l-0.27 0.252 0.322-0.688c0.177-0.378 0.343-0.746 0.369-0.816s0.151-0.226 0.278-0.344c0.482-0.449 0.494-0.973 0.023-1.089-0.17-0.042-0.265-0.002-0.423 0.179-0.224 0.256-0.257 0.53-0.104 0.859 0.080 0.172 0.070 0.276-0.048 0.52-0.162 0.336-0.239 0.369-0.402 0.176-0.12-0.142-0.569-0.182-0.482-0.043 0.030 0.047-0.005 0.086-0.077 0.086s-0.157 0.041-0.189 0.091c-0.090 0.142 0.036 0.511 0.175 0.511 0.068 0 0.153 0.045 0.188 0.101 0.043 0.068 0.016 0.083-0.082 0.046-0.118-0.044-0.146 0-0.146 0.238 0 0.161-0.042 0.319-0.094 0.35s-0.074 0.107-0.050 0.169c0.065 0.165-0.033 0.22-0.218 0.123-0.123-0.065-0.249-0.038-0.512 0.11-0.319 0.18-0.348 0.225-0.339 0.54 0.006 0.211 0.077 0.416 0.183 0.532 0.165 0.178 0.166 0.208 0.037 0.58-0.087 0.25-0.102 0.392-0.043 0.392 0.060 0 0.057 0.043-0.011 0.123-0.057 0.068-0.407 0.189-0.777 0.269s-0.793 0.197-0.939 0.259c-0.612 0.26-2.562 0.399-2.432 0.174 0.14-0.243 0.23-0.308 0.323-0.233 0.138 0.111 0.908-0.025 1.381-0.243 0.28-0.129 0.45-0.284 0.585-0.531 0.218-0.401 0.245-0.723 0.067-0.791-0.182-0.068-0.231 0.024-0.113 0.212 0.084 0.133 0.079 0.181-0.025 0.244-0.082 0.050-0.15 0.045-0.187-0.014-0.069-0.11-0.253-0.018-0.254 0.128-0 0.056-0.155 0.189-0.345 0.295-0.312 0.175-0.357 0.18-0.481 0.058-0.075-0.074-0.137-0.108-0.137-0.075s-0.057 0.013-0.127-0.044c-0.165-0.134-0.285-0.056-0.433 0.282-0.066 0.15-0.254 0.399-0.419 0.553-0.256 0.239-0.399 0.293-0.996 0.376-0.868 0.121-2.457 0.177-2.351 0.083 0.043-0.038 0.335-0.199 0.648-0.356s0.685-0.364 0.826-0.459c0.179-0.119 0.268-0.14 0.292-0.069 0.019 0.057 0.091 0.103 0.159 0.103s0.124 0.035 0.124 0.077c0 0.13 0.618-0.051 0.748-0.22 0.142-0.183 0.168-0.545 0.040-0.545-0.048 0-0.088-0.054-0.088-0.12 0-0.258-0.768-0.316-0.98-0.074-0.192 0.22-0.245 0.418-0.139 0.522 0.066 0.065 0.035 0.076-0.108 0.040-0.123-0.031-0.181-0.019-0.148 0.034 0.029 0.047-0.086 0.151-0.257 0.231l-0.311 0.145 0.332-0.398c0.44-0.527 1.234-1.223 1.588-1.393 0.296-0.142 0.41-0.403 0.131-0.301-0.137 0.051-0.14 0.041-0.025-0.098 0.122-0.148 0.131-0.147 0.207 0.020 0.186 0.408 0.847 0.248 0.847-0.206 0-0.243-0.224-0.474-0.396-0.41-0.071 0.027-0.128 0.015-0.126-0.025 0.005-0.143 0.237-0.374 0.374-0.374 0.174 0 0.411-0.324 0.411-0.561 0-0.212-0.156-0.385-0.349-0.385-0.179 0-0.439 0.433-0.439 0.731 0 0.129-0.124 0.391-0.278 0.588-0.317 0.405-0.48 0.583-0.389 0.425 0.096-0.168-0.038-0.531-0.217-0.587-0.277-0.086-0.392 0.055-0.157 0.192 0.206 0.12 0.205 0.121-0.070 0.077-0.255-0.041-0.287-0.020-0.378 0.251-0.055 0.163-0.077 0.332-0.050 0.375s-0.088 0.28-0.256 0.526c-0.168 0.246-0.306 0.404-0.306 0.352 0-0.131-0.325-0.12-0.38 0.013-0.027 0.065-0.047 0.049-0.051-0.040-0.004-0.095-0.054-0.13-0.138-0.098-0.083 0.031-0.131-0.001-0.131-0.088 0-0.152 0.397-0.17 0.591-0.027 0.152 0.113 0.146-0.147-0.006-0.271-0.165-0.134-0.454-0.058-0.727 0.19-0.22 0.2-0.231 0.245-0.178 0.742 0.044 0.411 0.023 0.589-0.092 0.802-0.082 0.15-0.139 0.318-0.129 0.373 0.038 0.193-0.725 0.447-1.692 0.561-1.123 0.133-2.737 0.088-2.452-0.068 0.096-0.053 0.471-0.121 0.832-0.151s0.77-0.071 0.908-0.091c0.547-0.078 1.034-0.877 0.691-1.132-0.084-0.063-0.359-0.116-0.611-0.117-0.375-0.002-0.528 0.046-0.854 0.272-0.218 0.151-0.397 0.321-0.397 0.377s-0.1 0.167-0.222 0.245c-0.122 0.078-0.198 0.18-0.169 0.225 0.050 0.080-0.080 0.16-0.324 0.2-0.064 0.011-0.211 0.070-0.326 0.132-0.429 0.231-2.499 0.251-3.292 0.031-0.134-0.037-0.085-0.074 0.213-0.16 0.213-0.062 0.416-0.094 0.453-0.072s0.090 0.001 0.121-0.047c0.030-0.048 0.148-0.087 0.261-0.087s0.225-0.048 0.248-0.107c0.028-0.072 0.090-0.044 0.187 0.086 0.105 0.14 0.235 0.193 0.471 0.193 0.442 0 0.715-0.201 0.715-0.526 0-0.459-0.133-0.591-0.594-0.59-0.481 0.002-0.547 0.036-0.762 0.4-0.089 0.15-0.255 0.314-0.37 0.365-0.348 0.156-0.403 0.105-0.13-0.12 0.142-0.117 0.451-0.399 0.685-0.625 0.615-0.592 0.871-0.731 1.332-0.722 0.47 0.009 0.627-0.095 0.627-0.416 0-0.27-0.126-0.4-0.431-0.443l-0.212-0.030 0.212-0.1c0.117-0.055 0.342-0.152 0.5-0.215 0.557-0.222 0.493-1.017-0.082-1.017-0.265 0-0.6 0.435-0.6 0.781 0 0.3-0.104 0.468-0.482 0.781-0.167 0.138-0.175 0.135-0.188-0.073-0.021-0.352-0.155-0.415-0.518-0.246l-0.323 0.15 0.052 0.442c0.029 0.243 0.015 0.5-0.032 0.571-0.066 0.101-0.084 0.082-0.085-0.090-0.001-0.121-0.049-0.266-0.106-0.322-0.142-0.139-0.463-0.13-0.588 0.017-0.056 0.066-0.214 0.166-0.351 0.221-0.302 0.123-0.424 0.537-0.239 0.81 0.104 0.153 0.097 0.217-0.053 0.48-0.095 0.166-0.213 0.328-0.263 0.359s-0.065 0.12-0.034 0.199c0.042 0.108 0.018 0.132-0.097 0.097-0.162-0.050-0.445 0.078-0.36 0.162 0.028 0.027 0.244 0.064 0.479 0.081 0.874 0.064 1.486 0.164 1.722 0.28 0.172 0.085 0.287 0.095 0.394 0.034 0.095-0.054 0.108-0.088 0.037-0.089-0.063-0.001-0.090-0.042-0.059-0.091 0.075-0.119 3.127-0.019 3.204 0.105 0.036 0.057 0.071 0.048 0.095-0.026 0.034-0.099 0.704 0.804 0.794 1.069 0.017 0.049 0.078 0.059 0.137 0.024 0.080-0.049 0.058-0.145-0.086-0.38l-0.193-0.316 0.364 0.344c0.2 0.189 0.364 0.373 0.365 0.408s-0.119 0.064-0.266 0.064-0.245 0.036-0.218 0.080c0.028 0.044 0.010 0.104-0.039 0.134s-0.089 0.011-0.089-0.042c0-0.053-0.039-0.072-0.088-0.043s-0.088 0.206-0.088 0.393c0 0.291 0.041 0.364 0.285 0.51 0.369 0.221 0.381 0.219 0.704-0.099l0.275-0.27 0.327 0.373c0.24 0.273 0.334 0.466 0.353 0.719 0.021 0.285 0.067 0.36 0.255 0.425 0.312 0.107 0.667 0.005 0.737-0.212 0.058-0.179 0.058-0.179 0.272 0.018 0.118 0.108 0.256 0.36 0.307 0.559 0.117 0.456 0.364 0.72 0.675 0.72 0.308 0 0.452-0.142 0.452-0.447 0-0.335-0.277-0.585-0.602-0.545-0.175 0.022-0.309-0.021-0.411-0.133-0.147-0.159-0.142-0.165 0.121-0.165 0.299 0 0.454-0.185 0.454-0.542 0-0.313-0.199-0.429-0.648-0.375-0.305 0.037-0.431 0.011-0.584-0.12-0.107-0.092-0.239-0.167-0.292-0.168s-0.195-0.078-0.315-0.17l-0.219-0.168 0.239-0.002c0.477-0.004 0.66-0.79 0.253-1.094-0.198-0.148-0.841-0.14-0.97 0.013-0.085 0.1-0.15 0.105-0.339 0.023-0.129-0.055-0.254-0.122-0.278-0.148-0.045-0.049-0.62-0.29-0.91-0.381-0.258-0.081-0.145-0.121 0.652-0.231 1.159-0.16 2.445-0.172 2.745-0.026 0.14 0.068 0.327 0.124 0.416 0.124s0.162 0.052 0.162 0.115c0 0.178 0.573 0.648 1.018 0.835 0.341 0.143 0.456 0.154 0.764 0.074 0.732-0.191 0.803-0.45 0.272-1.002-0.238-0.248-0.37-0.311-0.714-0.341-0.234-0.020-0.606 0.020-0.838 0.090-0.413 0.125-0.765 0.107-0.765-0.039 0-0.042 0.049-0.078 0.109-0.080s0.385-0.041 0.722-0.086c0.337-0.045 1.125-0.098 1.751-0.119l1.138-0.038 0.286 0.301c0.158 0.166 0.259 0.346 0.227 0.402s-0.027 0.072 0.013 0.037c0.121-0.108 0.394 0.434 0.394 0.782 0 0.409 0.284 0.7 0.682 0.7 0.341 0 0.582-0.31 0.526-0.678l-0.037-0.249 0.336 0.208c0.532 0.33 0.757 0.553 0.814 0.808 0.070 0.312 0.33 0.534 0.625 0.534 0.233 0 0.469-0.211 0.469-0.419 0-0.179-0.446-0.462-0.734-0.466-0.183-0.002-0.385-0.101-0.616-0.301-0.189-0.164-0.318-0.297-0.288-0.297 0.122 0 0.674 0.294 0.674 0.36 0 0.038 0.049 0.070 0.109 0.069s0.471 0.16 0.913 0.356c0.653 0.29 0.814 0.399 0.86 0.581 0.144 0.576 0.554 0.788 0.867 0.449 0.279-0.303-0.136-0.982-0.514-0.839-0.072 0.027-0.259-0.006-0.417-0.073-0.271-0.116-0.274-0.122-0.063-0.126 0.123-0.002 0.271-0.050 0.328-0.106 0.14-0.137 0.134-0.54-0.010-0.657-0.183-0.149-0.647-0.148-0.821 0.002-0.134 0.116-0.253 0.124-0.764 0.055-0.646-0.087-1.307-0.308-0.961-0.322 0.102-0.004 0.291-0.089 0.421-0.189 0.26-0.201 0.285-0.52 0.062-0.785-0.165-0.196-0.819-0.206-0.981-0.015-0.093 0.11-0.214 0.124-0.646 0.072-0.292-0.035-0.625-0.057-0.741-0.049s-0.253-0.020-0.306-0.063c-0.053-0.042-0.175-0.093-0.272-0.113-0.185-0.038-0.105-0.065 1.872-0.628 1.143-0.326 1.753-0.362 1.96-0.116 0.159 0.188 0.526 0.397 0.958 0.545 0.475 0.162 0.509 0.162 0.509-0.007 0-0.087-0.048-0.12-0.131-0.089-0.072 0.027-0.131 0.012-0.131-0.034s0.062-0.083 0.138-0.083c0.223 0 0.381-0.205 0.286-0.371-0.065-0.115-0.045-0.145 0.097-0.145 0.207 0 0.208-0.002 0.094-0.295-0.078-0.2-0.13-0.22-0.575-0.22-0.301 0-0.652 0.069-0.911 0.178-0.235 0.099-0.552 0.166-0.717 0.15l-0.295-0.028 0.438-0.153c0.241-0.084 0.674-0.266 0.963-0.404 0.485-0.232 1.979-0.689 2.252-0.689 0.197 0 1.233 0.55 1.276 0.678 0.023 0.066 0.001 0.095-0.049 0.065s-0.113 0.005-0.141 0.077c-0.029 0.075 0.005 0.153 0.078 0.181 0.071 0.027 0.13 0.116 0.13 0.198 0 0.438 0.844 0.606 1.102 0.219 0.085-0.127 0.127-0.32 0.105-0.473s0-0.255 0.056-0.252c0.238 0.016 0.638 0.339 0.823 0.666 0.184 0.325 0.236 0.359 0.542 0.359 0.379 0 0.624-0.233 0.548-0.521-0.053-0.2-0.077-0.198 0.486-0.034 0.286 0.083 0.454 0.18 0.454 0.262 0 0.071 0.097 0.224 0.215 0.34 0.389 0.382 0.923 0.204 0.923-0.309 0-0.345-0.328-0.551-0.751-0.473-0.333 0.061-1.526-0.189-1.526-0.321 0-0.040-0.035-0.051-0.077-0.025s-0.23-0.010-0.416-0.081l-0.338-0.127 0.455 0.028c0.25 0.015 0.452 0.005 0.449-0.022-0.022-0.201 0.041-0.182 0.19 0.058 0.13 0.209 0.236 0.279 0.42 0.279 0.458 0 0.62-0.43 0.278-0.734-0.161-0.143-0.221-0.148-0.589-0.052-0.225 0.059-0.431 0.134-0.456 0.167s-0.341 0.070-0.703 0.083c-0.62 0.022-0.646 0.016-0.46-0.112 0.262-0.181 0.274-0.738 0.022-0.986-0.288-0.283-0.632-0.222-0.973 0.171-0.222 0.257-0.363 0.344-0.56 0.346-0.145 0.001-0.413 0.037-0.598 0.079-0.32 0.073-0.329 0.070-0.191-0.080 0.079-0.086 0.27-0.206 0.422-0.267s0.303-0.145 0.332-0.188c0.030-0.043 0.337-0.168 0.683-0.28 0.663-0.213 1.444-0.215 1.627-0.004 0.169 0.194 0.705 0.381 1.206 0.42 0.46 0.036 0.529 0.018 0.766-0.2 0.144-0.132 0.259-0.311 0.258-0.398-0.005-0.241-0.195-0.499-0.391-0.532-0.745-0.125-0.838-0.115-1.394 0.148-0.427 0.202-0.63 0.253-0.842 0.211l-0.28-0.055 0.427-0.167c0.235-0.092 0.476-0.17 0.536-0.173s0.109-0.041 0.109-0.082 0.049-0.066 0.109-0.054c0.060 0.012 0.513-0.106 1.006-0.261 0.626-0.197 0.976-0.265 1.16-0.226 0.145 0.031 0.263 0.087 0.263 0.124s0.094 0.049 0.209 0.028c0.276-0.052 0.579 0.114 0.579 0.316 0 0.213 0.484 0.606 0.745 0.606 0.414 0 0.586-0.368 0.379-0.813-0.095-0.205-0.14-0.219-0.679-0.208-0.525 0.010-1.058-0.104-1.058-0.226 0-0.156 2.159 0.235 2.309 0.418 0.142 0.174 0.554 0.248 0.765 0.137 0.135-0.071 0.168-0.148 0.128-0.303-0.050-0.194-0.030-0.208 0.305-0.208 0.207 0 0.416 0.056 0.494 0.133 0.095 0.094 0.268 0.125 0.585 0.107 0.435-0.025 0.449-0.034 0.449-0.282 0-0.366-0.364-0.538-0.737-0.348-0.144 0.073-0.332 0.131-0.418 0.13-0.15-0.003-0.15-0.008-0.004-0.117 0.084-0.063 0.153-0.191 0.153-0.285 0-0.184-0.254-0.455-0.426-0.455-0.165 0-0.537 0.266-0.537 0.383 0 0.058-0.152 0.15-0.339 0.205-0.47 0.138-0.579 0.129-0.412-0.036 0.185-0.182 0.176-0.634-0.016-0.777-0.185-0.138-0.583-0.153-0.816-0.031-0.093 0.049-0.227 0.223-0.296 0.387-0.079 0.185-0.221 0.333-0.372 0.389-0.135 0.050-0.359 0.146-0.499 0.214-0.453 0.221-0.532 0.131-0.136-0.156 0.212-0.154 0.564-0.458 0.782-0.676 0.373-0.373 1.524-1.041 2.173-1.261 0.265-0.090 0.294-0.082 0.365 0.102 0.083 0.213 0.393 0.313 0.956 0.306 0.626-0.008 1.292-0.496 1.493-1.095 0.151-0.448 0.083-0.537-0.458-0.597-0.511-0.056-0.906 0.080-1.304 0.45-0.375 0.35-0.852 0.436-0.682 0.124 0.053-0.097 0.163-0.202 0.244-0.232s0.295-0.189 0.476-0.353c0.373-0.338 0.725-0.562 1.034-0.658 0.116-0.036 0.354-0.159 0.528-0.272 0.26-0.169 0.382-0.195 0.682-0.148 0.381 0.060 0.617-0.061 0.809-0.415 0.114-0.209-0.135-0.668-0.363-0.668-0.249 0-0.212-0.135 0.068-0.25 0.132-0.055 0.398-0.237 0.591-0.406s0.479-0.361 0.636-0.428c0.625-0.267 0.799-0.598 0.445-0.841l-0.189-0.13 0.211-0.173c0.116-0.095 0.235-0.174 0.263-0.175s0.097-0.1 0.151-0.218c0.066-0.142 0.171-0.215 0.31-0.215 0.271 0 0.371-0.316 0.17-0.534-0.187-0.203-0.599-0.198-0.746 0.010zM50.454 3.892c0.041 0.207-0.13 0.177-0.186-0.034-0.030-0.112-0.010-0.165 0.056-0.143 0.056 0.018 0.115 0.098 0.131 0.177zM51.175 4.317l-0.205 0.191 0.166-0.228c0.091-0.125 0.183-0.211 0.205-0.191s-0.053 0.123-0.166 0.228zM47.546 4.723c0.005 0.142-0.021 0.258-0.058 0.258s-0.11 0.106-0.162 0.236c-0.088 0.223-0.091 0.219-0.040-0.064 0.054-0.301 0.181-0.688 0.226-0.687 0.013 0 0.028 0.116 0.033 0.258zM50.382 4.75c0 0.093-0.273 0.27-0.736 0.476-0.044 0.019 0.030-0.105 0.164-0.277 0.238-0.306 0.572-0.423 0.572-0.199zM42.873 4.983c-0.199 0.079-0.256 0.209-0.126 0.288 0.072 0.044 0.068 0.347-0.010 0.741-0.070 0.357-0.351 0.87-0.418 0.763-0.082-0.13-0.486-0.124-0.65 0.010-0.072 0.059-0.132 0.236-0.132 0.393 0 0.24 0.028 0.28 0.177 0.252 0.099-0.019 0.154 0.003 0.125 0.049s-0.085 0.063-0.124 0.039-0.14 0.227-0.222 0.557c-0.082 0.331-0.184 0.601-0.226 0.601s-0.137-0.116-0.212-0.258c-0.102-0.193-0.197-0.258-0.38-0.258-0.467 0-0.659 0.292-0.502 0.763 0.053 0.159 0.042 0.189-0.051 0.138-0.065-0.037 0.009 0.066 0.165 0.229 0.26 0.271 0.276 0.321 0.197 0.593-0.105 0.358-0.108 0.52-0.013 0.667 0.074 0.114 0.203 0.027 0.954-0.647 0.245-0.219 0.38-0.276 0.64-0.266 0.264 0.010 0.375-0.037 0.554-0.237 0.208-0.232 0.317-0.723 0.162-0.723-0.037 0-0.156 0.060-0.263 0.134-0.219 0.151-0.244 0.114-0.089-0.131 0.058-0.092 0.073-0.198 0.032-0.235s-0.091-0.024-0.11 0.030-0.103 0.083-0.185 0.065c-0.275-0.062-0.486 0.19-0.471 0.563 0.010 0.254-0.036 0.388-0.179 0.519-0.106 0.097-0.242 0.158-0.301 0.136-0.062-0.023-0.089 0.007-0.064 0.073 0.024 0.062-0.015 0.136-0.088 0.163-0.148 0.056-0.105-0.145 0.078-0.371 0.058-0.071 0.191-0.308 0.296-0.527 0.261-0.544 0.496-0.795 0.677-0.727 0.128 0.048 0.131 0.037 0.025-0.092-0.108-0.13-0.103-0.14 0.036-0.089 0.096 0.036 0.137 0.024 0.103-0.028-0.094-0.15 0.467-0.758 0.726-0.787 0.149-0.017 0.249-0.087 0.268-0.189 0.045-0.232-0.163-0.569-0.351-0.569-0.197 0-0.197 0.013 0.009-0.459 0.121-0.277 0.227-0.395 0.372-0.415 0.406-0.056 0.269-0.864-0.142-0.839-0.051 0.003-0.182 0.040-0.29 0.083zM43.238 5.118c0.076 0.029 0.117 0.085 0.092 0.125-0.056 0.089-0.303 0.007-0.303-0.1 0-0.091 0.028-0.094 0.211-0.025zM47.212 6.316c-0.123 0.265-0.185 0.22-0.109-0.079 0.032-0.123 0.091-0.204 0.132-0.179s0.031 0.141-0.024 0.258zM46.709 6.747c-0.076 0.249-0.077 0.25-0.085 0.032-0.004-0.122 0.019-0.248 0.051-0.279 0.102-0.1 0.113-0.014 0.034 0.248zM48.718 6.599c0 0.039-0.057 0.072-0.127 0.072s-0.107-0.032-0.082-0.072c0.025-0.039 0.082-0.072 0.127-0.072s0.082 0.032 0.082 0.072zM46.705 7.124c0 0.045-0.039 0.105-0.088 0.134s-0.088-0.007-0.088-0.081 0.039-0.134 0.088-0.134c0.048 0 0.088 0.036 0.088 0.081zM42.249 7.695c-0.102 0.127-0.185 0.196-0.185 0.153 0-0.118 0.274-0.478 0.325-0.428 0.025 0.024-0.038 0.148-0.14 0.275zM44.578 8.021c-0.018 0.053-0.128 0.11-0.244 0.127s-0.241 0.075-0.276 0.129c-0.041 0.063-0.065 0.045-0.066-0.052-0.001-0.083 0.059-0.15 0.133-0.15s0.156-0.056 0.182-0.123c0.056-0.143 0.32-0.075 0.271 0.070zM44.515 8.418c0 0.047-0.039 0.086-0.088 0.086s-0.088-0.039-0.088-0.086 0.039-0.086 0.088-0.086c0.048 0 0.088 0.039 0.088 0.086zM43.902 8.671c0 0.045-0.039 0.105-0.088 0.134s-0.088-0.007-0.088-0.081 0.039-0.134 0.088-0.134c0.048 0 0.088 0.036 0.088 0.081zM42.707 8.895c-0.029 0.073-0.071 0.114-0.094 0.092s-0.016-0.082 0.016-0.133c0.086-0.137 0.137-0.111 0.078 0.041zM46.792 9.152c0 0.022-0.187 0.038-0.416 0.036l-0.416-0.004 0.263-0.113c0.234-0.101 0.569-0.053 0.569 0.081zM41.125 9.256c-0.031 0.083-0.134 0.253-0.227 0.379s-0.17 0.332-0.17 0.458c0 0.126-0.033 0.197-0.072 0.158-0.118-0.116 0.059-0.698 0.282-0.929 0.247-0.255 0.261-0.26 0.187-0.066zM48.39 9.163c-0.060 0.024-0.159 0.024-0.219 0s-0.011-0.043 0.109-0.043c0.12 0 0.17 0.020 0.109 0.043zM47.604 9.42c0.059-0.024-0.010-0.041-0.155-0.040s-0.193 0.021-0.108 0.043c0.085 0.022 0.203 0.020 0.263-0.003zM29.673 9.965c0.030 0.047 0.015 0.086-0.033 0.086s-0.112-0.039-0.142-0.086c-0.030-0.047-0.015-0.086 0.033-0.086s0.112 0.039 0.142 0.086zM35.004 10.497c-0.040 0.062-0.085 0.202-0.1 0.31s-0.107 0.321-0.203 0.473l-0.175 0.276 0.055-0.258c0.093-0.437 0.2-0.721 0.32-0.849 0.136-0.145 0.206-0.113 0.104 0.048zM44.148 10.784c-0.027 0.026-0.076-0.021-0.109-0.106-0.047-0.122-0.037-0.132 0.049-0.048 0.060 0.058 0.087 0.128 0.060 0.154zM37.897 11.142c-0.118 0.085-0.175 0.091-0.199 0.020-0.041-0.12 0.166-0.259 0.281-0.189 0.046 0.028 0.009 0.104-0.082 0.169zM29.411 11.341c-0.030 0.047-0.101 0.085-0.158 0.085-0.063-0.001-0.052-0.035 0.027-0.085 0.168-0.107 0.199-0.107 0.131 0zM28.053 11.55c0 0.021-0.039 0.062-0.088 0.091s-0.088 0.012-0.088-0.038 0.039-0.091 0.088-0.091c0.048 0 0.088 0.017 0.088 0.038zM34.584 12.275c-0.278 0.273-0.292 0.116-0.029-0.336 0.192-0.33 0.198-0.333 0.226-0.112 0.020 0.155-0.043 0.297-0.197 0.448zM27.942 12.177c0.177-0.173 0.294-0.342 0.261-0.374s-0.2 0.087-0.372 0.265c-0.406 0.423-0.308 0.52 0.111 0.109zM40.4 12.071c0.267 0.15 0.202 0.15-0.525 0.003l-0.569-0.115 0.438-0.005c0.241-0.003 0.536 0.050 0.657 0.117zM36.985 12.062c0 0.019-0.061 0.057-0.136 0.085-0.078 0.029-0.113 0.015-0.082-0.034 0.051-0.082 0.218-0.121 0.218-0.051zM39.825 12.248c0.172 0.032 0.313 0.092 0.313 0.134 0 0.14-0.391 0.077-0.657-0.105-0.145-0.099-0.196-0.159-0.116-0.133s0.288 0.073 0.46 0.105zM30.762 12.403c0.401-0.141 0.403-0.141 0.532 0.012 0.112 0.133 0.114 0.132-0.285 0.163-0.248 0.020-0.303 0.173-0.118 0.334 0.101 0.088 0.137 0.137 0.081 0.109s-0.207-0.004-0.335 0.053c-0.185 0.083-0.246 0.081-0.302-0.009-0.058-0.091-0.079-0.091-0.115 0.005-0.034 0.090-0.058 0.084-0.105-0.027-0.079-0.187 0.233-0.496 0.647-0.641zM19.738 12.71c-0.161 0.309-0.353 0.523-0.353 0.392 0-0.128 0.415-0.73 0.503-0.73 0.014 0-0.053 0.152-0.15 0.338zM34.095 12.544c0 0.047-0.033 0.086-0.074 0.086s-0.122 0.158-0.181 0.352c-0.059 0.194-0.124 0.336-0.145 0.315-0.062-0.061 0.235-0.839 0.321-0.839 0.044 0 0.079 0.039 0.079 0.086zM41.801 12.724c0.105 0.058 0.097 0.073-0.044 0.073-0.096-0-0.254-0.061-0.35-0.135-0.17-0.131-0.169-0.133 0.044-0.073 0.12 0.034 0.278 0.095 0.35 0.135zM26.416 12.979c0.038 0.145 0.025 0.158-0.076 0.076-0.068-0.055-0.102-0.135-0.075-0.177 0.071-0.113 0.1-0.095 0.152 0.101zM27.822 13.274c-0.028 0.071-0.090 0.129-0.139 0.129-0.051 0-0.043-0.055 0.020-0.129 0.060-0.071 0.123-0.129 0.139-0.129s0.008 0.058-0.020 0.129zM26.453 13.746c-0.323 0.364-0.355 0.395-0.31 0.302 0.023-0.047 0.112-0.236 0.198-0.42 0.114-0.245 0.175-0.302 0.23-0.216 0.048 0.077 0.007 0.193-0.118 0.334zM37.326 13.546c0.156-0.189 0.307-0.141 0.344 0.108 0.038 0.257-0.219 0.524-0.502 0.52l-0.227-0.003 0.241-0.194c0.239-0.192 0.346-0.474 0.131-0.348-0.072 0.042-0.067 0.013 0.013-0.084zM23.383 13.876c-0.442 0.416-0.846 0.525-0.846 0.228 0-0.258 0.292-0.452 0.645-0.429 0.174 0.012 0.365-0.026 0.423-0.083s0.124-0.103 0.147-0.103c0.023 0-0.143 0.174-0.369 0.387zM18.592 13.896c-0.513 0.546-0.951 0.728-0.57 0.236 0.123-0.159 0.224-0.327 0.224-0.374s0.128-0.102 0.285-0.121c0.157-0.019 0.302-0.041 0.324-0.048s-0.097 0.131-0.263 0.307zM7.126 14.447c0.699-0.113 3.065-0.114 3.608-0.002 0.902 0.187 1.555 0.549 2.215 1.229 0.874 0.899 1.020 1.199 1.073 2.207 0.028 0.525 0.005 0.947-0.063 1.16-0.166 0.526-0.468 1.264-0.591 1.45-0.062 0.093-0.113 0.238-0.113 0.322s-0.037 0.153-0.082 0.153c-0.045 0-0.105 0.070-0.132 0.157s-0.124 0.234-0.213 0.328c-0.089 0.094-0.231 0.313-0.315 0.486-0.197 0.408-1.402 1.629-1.798 1.822-0.169 0.082-0.386 0.22-0.483 0.307-0.344 0.308-1.382 0.682-1.986 0.716-0.088 0.005-0.153 0.048-0.144 0.095 0.040 0.207 0.521 0.908 1.188 1.729 0.944 1.162 1 1.228 1.206 1.428 0.243 0.236 1.595 1.098 1.722 1.098 0.057 0 0.167 0.056 0.244 0.125 0.217 0.193 1.115 0.391 1.773 0.391 1.005 0 1.701-0.356 2.145-1.096 0.374-0.624 0.531-0.386 0.195 0.295-0.224 0.454-0.724 0.931-1.311 1.249-1.186 0.643-3.277-0.015-5.236-1.648-0.97-0.808-2.157-2.411-2.391-3.228-0.104-0.364-0.158-0.433-0.357-0.455-0.217-0.025-0.244 0.009-0.374 0.473-0.077 0.275-0.181 0.596-0.231 0.714-0.136 0.321-0.789 2.828-0.901 3.458-0.073 0.412-0.339 0.576-0.582 0.36-0.203-0.18-0.219-0.603-0.045-1.203 0.067-0.233 0.148-0.628 0.178-0.876 0.056-0.453 1.057-3.855 1.182-4.017 0.037-0.047 0.134-0.299 0.217-0.559 0.201-0.631 0.618-1.7 0.788-2.020 0.076-0.142 0.138-0.324 0.138-0.405 0.001-0.263 0.428-1.237 1.321-3.011 0.672-1.335 1.022-1.683 1.283-1.273 0.154 0.242 0.061 0.498-0.857 2.369-0.649 1.323-1.546 3.459-1.658 3.948-0.084 0.368-0.15 0.551-0.413 1.148-0.207 0.469-0.136 0.575 0.369 0.547 1.463-0.080 2.842-0.944 4.011-2.513 0.697-0.935 1.393-2.605 1.514-3.633 0.117-0.987-0.464-2.141-1.367-2.714-1.101-0.698-2.963-0.817-4.597-0.294-0.502 0.161-1.896 0.778-1.967 0.871-0.026 0.034-0.224 0.174-0.441 0.312-0.838 0.532-0.995 0.648-1.414 1.043-0.238 0.224-0.491 0.518-0.562 0.653s-0.165 0.246-0.209 0.246-0.102 0.071-0.13 0.158c-0.028 0.087-0.173 0.29-0.321 0.451-0.344 0.373-0.978 1.673-1.17 2.399-0.081 0.307-0.169 0.932-0.196 1.388-0.040 0.699-0.017 0.927 0.145 1.452 0.311 1.005 0.767 1.609 1.453 1.928 0.475 0.22 0.616 0.389 0.327 0.389-0.083 0-0.443-0.144-0.801-0.319-0.73-0.358-1.436-1.085-1.546-1.588-0.034-0.156-0.091-0.323-0.126-0.37-0.172-0.232-0.309-1.018-0.299-1.719 0.012-0.808 0.359-2.287 0.705-3.008 0.357-0.742 1.178-1.853 1.91-2.583 0.376-0.375 1.053-0.898 1.162-0.898 0.051 0 0.106-0.031 0.122-0.069 0.033-0.078 0.82-0.618 0.9-0.618 0.028 0 0.199-0.089 0.378-0.198 0.373-0.227 1.052-0.489 1.264-0.489 0.079 0 0.156-0.038 0.172-0.084s0.246-0.119 0.511-0.162zM14.76 14.662c0.035 0.403 0.233 0.535 0.568 0.377 0.237-0.111 0.991-0.179 0.993-0.089 0 0.024 0.121 0.11 0.267 0.192 0.26 0.145 0.265 0.161 0.216 0.645-0.037 0.362-0.017 0.538 0.075 0.652 0.289 0.359 1.105 0.081 1.105-0.376 0-0.339-0.143-0.39-0.207-0.074-0.080 0.391-0.256 0.221-0.187-0.18 0.047-0.276 0.030-0.336-0.113-0.38-0.093-0.029-0.241-0.026-0.328 0.007-0.123 0.046-0.146 0.028-0.104-0.080 0.036-0.092-0.026-0.197-0.182-0.309-0.189-0.136-0.203-0.166-0.071-0.154 0.091 0.008 0.183-0.033 0.204-0.092 0.028-0.078-0.102-0.107-0.477-0.107-0.283 0-0.553-0.034-0.598-0.076s-0.172-0.103-0.28-0.135c-0.154-0.046-0.197-0.024-0.197 0.099 0 0.22-0.346 0.429-0.448 0.271-0.116-0.179-0.091-0.314 0.076-0.409 0.131-0.075 0.117-0.088-0.093-0.090-0.23-0.002-0.244 0.018-0.219 0.311zM31.906 14.77c0 0.043 0.121 0.119 0.269 0.17s0.245 0.131 0.214 0.179c-0.032 0.051 0.001 0.066 0.081 0.036 0.075-0.028 0.136-0.011 0.136 0.038s0.089 0.106 0.197 0.126c0.108 0.021 0.020 0.042-0.197 0.047-0.364 0.009-0.413-0.016-0.64-0.332-0.136-0.188-0.204-0.342-0.153-0.342s0.093 0.035 0.093 0.077zM33.132 14.891c0.129 0.001 0.271 0.136 0.438 0.416 0.069 0.116 0.053 0.134-0.088 0.098-0.095-0.024-0.147-0.085-0.116-0.134s0.017-0.065-0.032-0.036c-0.091 0.055-0.69-0.21-0.853-0.379-0.068-0.070-0.011-0.079 0.213-0.031 0.169 0.036 0.366 0.065 0.438 0.066zM20.238 15.268c0.462-0.119 1.248 0.065 1.248 0.292 0 0.056-0.181 0.275-0.402 0.486l-0.402 0.383 0.276-0.060c0.189-0.041 0.322-0.020 0.423 0.066 0.081 0.069 0.246 0.148 0.367 0.176 0.253 0.059 0.54-0.075 0.383-0.178-0.168-0.111-0.238-0.451-0.093-0.451 0.144 0 0.41 0.358 0.41 0.551 0 0.173-0.102 0.222-0.543 0.259-0.207 0.017-0.446 0.059-0.53 0.093-0.208 0.083-0.445-0.018-0.387-0.164 0.056-0.143-0.478-0.251-0.566-0.115-0.114 0.175-0.514-0.028-0.737-0.375-0.123-0.192-0.241-0.394-0.262-0.45-0.067-0.18 0.111-0.339 0.389-0.349 0.149-0.005 0.272-0.036 0.272-0.068s0.069-0.076 0.153-0.097zM29.114 15.491c-0.071 0.070-0.126 0.065-0.207-0.020-0.066-0.070-0.070-0.094-0.009-0.061 0.055 0.030 0.129-0.012 0.163-0.095 0.047-0.111 0.074-0.12 0.107-0.035 0.024 0.063-0 0.158-0.054 0.211zM24.483 15.709c0.311 0.139 0.427 0.245 0.467 0.423 0.029 0.13 0.068 0.285 0.087 0.344 0.063 0.201-0.093 0.108-0.355-0.213-0.144-0.176-0.38-0.435-0.525-0.574s-0.223-0.234-0.175-0.21c0.048 0.024 0.274 0.128 0.502 0.23zM21.574 15.621c0-0.105 0.2-0.077 0.372 0.051 0.196 0.146 0.195 0.224-0.004 0.224-0.162 0-0.368-0.154-0.368-0.275zM17.217 15.939c-0.048 0.244-0.152 0.28-0.231 0.078-0.065-0.166 0.004-0.293 0.159-0.293 0.074 0 0.1 0.075 0.072 0.215zM50.25 16.149c-0.165 0.066-0.941 0.774-1.142 1.043-0.050 0.067-0.181 0.316-0.291 0.552s-0.313 0.642-0.453 0.902c-0.667 1.245-1.278 2.628-1.54 3.481-0.219 0.714-0.497 1.365-0.664 1.553-0.087 0.098-0.157 0.205-0.157 0.238 0 0.112-0.916 1.385-1.262 1.754-0.224 0.239-0.417 0.365-0.557 0.365-0.164 0-0.204-0.036-0.169-0.15 0.026-0.083 0.13-0.46 0.232-0.838 0.195-0.721 0.504-1.563 0.637-1.733 0.118-0.152 0.594-1.564 0.594-1.763 0-0.242-0.548-0.759-0.801-0.755-0.44 0.006-1.1 0.574-1.766 1.516-0.228 0.323-0.619 0.877-0.869 1.231-0.307 0.435-0.465 0.597-0.485 0.497-0.030-0.146 0.489-1.277 0.87-1.898 0.155-0.251 0.179-0.359 0.107-0.473-0.13-0.203-0.562-0.222-0.787-0.035-0.202 0.169-0.751 1.136-0.906 1.598-0.174 0.517-1.633 1.768-2.263 1.939-0.739 0.201-1.155 0.060-1.414-0.481-0.193-0.402-0.231-0.919-0.094-1.272 0.076-0.196 0.134-0.22 0.522-0.22 0.24 0 0.651-0.079 0.913-0.175 0.39-0.143 0.534-0.257 0.791-0.624 0.83-1.183-0.068-2.044-1.431-1.371-0.582 0.287-1.116 0.782-1.198 1.111-0.095 0.378-0.615 1.274-0.739 1.274-0.061 0-0.128 0.058-0.147 0.129-0.032 0.115-0.026 0.115 0.057 0 0.051-0.071 0.093-0.097 0.094-0.059s-0.097 0.197-0.218 0.352-0.219 0.31-0.219 0.345c0 0.035-0.187 0.311-0.416 0.613s-0.527 0.706-0.662 0.896c-0.176 0.247-0.309 0.345-0.466 0.345-0.168 0-0.209-0.035-0.174-0.15 0.025-0.083 0.148-0.537 0.274-1.010 0.279-1.049 0.432-1.501 0.647-1.917 0.091-0.175 0.232-0.58 0.314-0.901l0.149-0.583-0.231-0.297c-0.127-0.163-0.323-0.32-0.436-0.348-0.275-0.067-0.847 0.227-1.268 0.653-0.345 0.349-1.259 1.644-1.406 1.993-0.117 0.276-0.633 0.849-0.564 0.626 0.132-0.429 0.263-0.743 0.627-1.502 0.421-0.879 0.42-1.053-0.008-1.104-0.174-0.020-0.308 0.051-0.535 0.288-0.167 0.173-0.327 0.389-0.356 0.478s-0.084 0.163-0.123 0.163-0.162 0.28-0.274 0.623c-0.194 0.595-0.575 1.369-1.016 2.061-0.112 0.176-0.204 0.354-0.204 0.394 0 0.126-0.507 0.524-0.741 0.581-0.447 0.11-0.634-0.012-0.751-0.491-0.173-0.709-0.057-1.601 0.309-2.357 0.342-0.707 0.372-0.879 0.168-0.956-0.11-0.041-0.128-0.129-0.085-0.412 0.063-0.41-0.127-0.727-0.568-0.95-0.45-0.228-0.803-0.163-1.381 0.254-0.577 0.416-1.153 1.247-1.381 1.99-0.068 0.222-0.159 0.446-0.203 0.499s-0.129 0.26-0.189 0.461c-0.061 0.201-0.144 0.365-0.184 0.365s-0.074 0.055-0.074 0.123c0 0.067-0.056 0.178-0.125 0.245s-0.206 0.254-0.305 0.414c-0.3 0.486-1.067 1.194-1.293 1.194-0.112 0-0.203-0.048-0.203-0.107 0.001-0.201 0.771-2.427 1.079-3.116 0.548-1.23 0.61-1.822 0.229-2.196-0.235-0.23-0.564-0.209-0.922 0.059-0.296 0.222-0.824 0.906-0.824 1.067 0 0.045-0.039 0.082-0.088 0.082s-0.088 0.051-0.088 0.113-0.057 0.188-0.127 0.279c-0.070 0.092-0.005-0.15 0.145-0.536 0.246-0.637 0.261-0.729 0.157-0.974-0.239-0.565-0.796-0.513-1.376 0.128-0.382 0.422-0.558 0.71-1.158 1.893-0.24 0.473-0.437 0.818-0.439 0.768-0.010-0.285 0.575-1.783 0.963-2.464 0.167-0.294 0.025-0.555-0.38-0.697-0.276-0.096-0.791 0.608-1.216 1.662-0.209 0.519-0.32 0.66-0.756 0.959-0.396 0.272-1.092 0.505-1.197 0.401-0.018-0.018 0.044-0.319 0.137-0.669s0.17-0.872 0.17-1.16c0-0.457-0.032-0.558-0.251-0.794-0.284-0.305-0.846-0.506-1.184-0.423-0.559 0.138-1.015 0.792-1.016 1.459-0 0.14-0.1 0.361-0.233 0.516-1.054 1.224-0.762 2.978 0.496 2.978 0.377 0 0.447-0.034 0.766-0.374 0.193-0.206 0.443-0.53 0.555-0.721 0.187-0.318 0.24-0.351 0.659-0.399 0.265-0.031 0.694-0.177 1.026-0.349l0.57-0.297-0.047 0.45c-0.071 0.674 0.111 1.42 0.375 1.538 0.117 0.052 0.223 0.079 0.236 0.059 0.052-0.076 0.411-0.83 0.583-1.226 0.1-0.23 0.257-0.512 0.35-0.627s0.194-0.325 0.225-0.465c0.031-0.14 0.093-0.233 0.136-0.206s0.058-0.007 0.032-0.074c-0.052-0.132 0.812-1.44 0.989-1.497 0.059-0.019-0.071 0.335-0.289 0.786s-0.421 0.909-0.451 1.016c-0.099 0.351-0.069 0.983 0.053 1.128 0.187 0.221 0.511 0.176 0.681-0.095 0.082-0.13 0.326-0.507 0.543-0.837s0.505-0.807 0.64-1.060c0.135-0.252 0.324-0.567 0.42-0.698 0.181-0.25 0.603-0.562 0.67-0.496 0.032 0.031-0.562 1.355-0.843 1.877-0.041 0.077-0.103 0.29-0.136 0.473s-0.089 0.372-0.123 0.419c-0.059 0.082-0.196 0.83-0.307 1.681-0.045 0.343-0.018 0.436 0.218 0.756 0.305 0.413 0.433 0.484 0.74 0.408 0.421-0.104 1.599-1.465 1.905-2.201l0.124-0.298 0.095 0.267c0.052 0.147 0.238 0.408 0.413 0.579 0.432 0.424 0.859 0.436 1.248 0.033 0.148-0.154 0.332-0.395 0.408-0.537l0.138-0.258 0.003 0.393c0.009 1.033 0.455 1.63 1.262 1.692 0.651 0.050 0.994-0.22 1.665-1.313 0.217-0.353 0.316-0.457 0.316-0.331 0.001 0.446 0.76 0.576 1.084 0.187 0.365-0.44 0.492-0.62 0.492-0.701 0-0.045 0.15-0.279 0.334-0.52s0.566-0.747 0.85-1.125c0.444-0.592 1.048-1.246 1.149-1.246s-0.003 0.408-0.225 0.877c-0.839 1.77-1.099 2.718-0.917 3.345 0.108 0.371 0.582 0.647 0.954 0.556 0.34-0.084 0.961-0.714 1.575-1.598 0.456-0.655 0.779-1.070 0.63-0.808-0.117 0.206 0.466 1.371 0.727 1.453 0.097 0.030 0.176 0.088 0.176 0.129s0.221 0.119 0.492 0.174c0.527 0.107 1.187 0.052 1.369-0.115 0.061-0.056 0.301-0.232 0.532-0.391s0.57-0.446 0.753-0.639l0.333-0.35v0.445c0 0.508 0.102 0.67 0.473 0.75 0.322 0.069 0.483-0.059 0.979-0.776 0.196-0.284 0.497-0.694 0.668-0.912s0.371-0.483 0.443-0.589c0.285-0.418 0.799-1.077 1.051-1.349 0.503-0.542 0.491-0.337-0.047 0.806-0.116 0.247-0.237 0.556-0.268 0.688s-0.104 0.316-0.162 0.411c-0.128 0.208-0.284 0.8-0.356 1.349-0.113 0.863 0.27 1.433 0.887 1.319 0.41-0.075 0.819-0.451 1.483-1.363l0.563-0.773v0.699c0 0.64 0.017 0.71 0.207 0.832 0.114 0.073 0.262 0.112 0.33 0.086s0.238-0.401 0.378-0.834c0.279-0.863 0.274-0.865 0.526 0.146 0.185 0.74 0.48 1.357 0.858 1.792 0.368 0.424 0.894 0.514 1.429 0.247 0.288-0.145 1.263-1.055 1.263-1.18 0-0.021 0.144-0.26 0.321-0.531 0.222-0.341 0.337-0.453 0.372-0.364 0.184 0.46 0.536 0.681 1.084 0.681 0.352 0 0.425-0.039 0.793-0.425 0.223-0.234 0.47-0.558 0.548-0.72 0.128-0.263 0.19-0.3 0.576-0.345 0.238-0.028 0.657-0.153 0.93-0.278 0.512-0.234 1.242-0.847 1.242-1.044 0-0.18-0.358-0.127-0.562 0.082-0.479 0.493-0.86 0.736-1.244 0.792-0.219 0.032-0.419 0.039-0.444 0.014s0.017-0.211 0.093-0.415c0.217-0.582 0.324-1.361 0.236-1.731-0.1-0.423-0.287-0.62-0.757-0.796-0.522-0.196-0.889-0.111-1.295 0.296-0.283 0.284-0.336 0.401-0.38 0.837-0.039 0.386-0.11 0.573-0.296 0.783-0.25 0.283-0.606 0.985-0.606 1.196 0 0.137-0.224 0.563-0.492 0.934-0.102 0.142-0.21 0.335-0.241 0.429-0.098 0.305-1.187 1.306-1.507 1.384-0.462 0.114-0.813-0.27-0.951-1.041-0.034-0.189-0.114-0.498-0.177-0.688s-0.142-0.505-0.175-0.701c-0.054-0.324-0.041-0.363 0.143-0.418 0.595-0.176 1.010-0.448 1.568-1.025 0.275-0.285 0.606-1.058 0.606-1.417 0-0.297-0.245-0.521-0.568-0.521-0.298 0-1.063 0.543-1.418 1.006-0.135 0.176-0.307 0.381-0.381 0.456s-0.307 0.376-0.517 0.67c-0.21 0.294-0.395 0.523-0.41 0.509s0.029-0.237 0.097-0.495c0.086-0.325 0.198-0.521 0.364-0.641 0.132-0.095 0.419-0.346 0.639-0.558s0.483-0.444 0.585-0.516c0.563-0.392 1.937-2.364 2.247-3.224 0.408-1.131 0.397-1.422-0.069-1.879-0.153-0.15-0.74-0.184-1.051-0.060zM35.811 16.376l0.254 0.222-0.372-0.181c-0.384-0.187-0.458-0.263-0.254-0.263 0.065 0 0.232 0.1 0.372 0.222zM51.080 17.121c-0.003 0.62-0.361 1.406-1.196 2.626-0.663 0.969-1.785 2.193-1.846 2.013-0.027-0.080 0.114-0.447 0.585-1.524 0.083-0.189 0.224-0.518 0.314-0.731s0.208-0.445 0.263-0.516c0.055-0.071 0.235-0.395 0.399-0.72 0.297-0.586 1.168-1.601 1.374-1.601 0.071 0 0.106 0.151 0.105 0.451zM25.598 17.21c0.159 0.132 0.267 0.261 0.24 0.287-0.076 0.075-0.273-0.070-0.595-0.437-0.302-0.345-0.175-0.291 0.355 0.15zM26.51 17.541c0.096 0.088 0.227 0.16 0.29 0.16s0.115 0.080 0.115 0.179c0 0.154-0.068 0.122-0.482-0.225-0.265-0.222-0.482-0.42-0.482-0.439 0-0.061 0.374 0.158 0.558 0.326zM49.935 21.79c-0.336 0.548-0.998 1.173-1.492 1.407l-0.332 0.157 0.238-0.313c0.131-0.172 0.288-0.364 0.348-0.427s0.109-0.142 0.109-0.176c0-0.201 1.273-1.283 1.383-1.175 0.023 0.023-0.091 0.26-0.254 0.526zM15.978 21.547c0.084 0.216 0.076 0.468-0.033 1.053-0.076 0.405-0.256 0.988-0.336 1.084-0.136 0.163-0.522 0.030-0.619-0.214-0.127-0.32-0.155-1.010-0.054-1.375 0.108-0.394 0.478-0.784 0.745-0.784 0.143 0 0.233 0.072 0.297 0.236zM54.602 21.611c0.039 0.142 0.047 0.432 0.018 0.645-0.065 0.468-0.371 1.443-0.472 1.504-0.040 0.024-0.167 0.009-0.283-0.034-0.21-0.078-0.418-0.546-0.418-0.939 0-0.415 0.202-1.050 0.401-1.261 0.295-0.313 0.654-0.272 0.754 0.085zM27.774 21.766c0.029 0.348-0.114 0.808-0.52 1.666-0.138 0.292-0.252 0.567-0.252 0.61 0 0.125-0.842 1.051-0.954 1.049-0.193-0.005-0.305-0.209-0.337-0.614-0.030-0.374 0.013-0.574 0.233-1.078 0.395-0.904 0.643-1.336 0.974-1.693 0.235-0.254 0.348-0.312 0.561-0.292 0.24 0.023 0.269 0.058 0.294 0.352zM39.086 21.685c0 0.205-0.074 0.36-0.257 0.537-0.467 0.452-0.601 0.526-1.168 0.636-0.309 0.060-0.327 0.052-0.276-0.118 0.091-0.303 0.507-0.767 0.951-1.063 0.558-0.371 0.75-0.369 0.75 0.009zM14.892 23.838c0.512 0.272 0.507 0.251 0.17 0.768-0.297 0.456-0.663 0.692-0.826 0.532-0.134-0.131-0.060-1.122 0.108-1.454 0.152-0.302 0.175-0.317 0.236-0.155 0.037 0.098 0.178 0.238 0.313 0.309zM53.757 23.975c0.194 0 0.241 0.173 0.092 0.334-0.077 0.084-0.14 0.184-0.14 0.223s-0.101 0.2-0.223 0.359c-0.24 0.309-0.477 0.366-0.654 0.157-0.144-0.17-0.065-1.018 0.13-1.392l0.144-0.277 0.267 0.298c0.147 0.164 0.319 0.298 0.384 0.298zM26.537 28.414c-0.033 0.032-0.060 0.285-0.060 0.562v0.504l-0.241-0.122c-0.764-0.388-1.497-0.016-1.577 0.798-0.049 0.499 0.158 0.862 0.592 1.038 0.321 0.13 0.835 0.064 1.062-0.138 0.156-0.139 0.164-0.136 0.164 0.046 0 0.116 0.044 0.178 0.109 0.157 0.080-0.026 0.116-0.402 0.134-1.397 0.022-1.248-0.023-1.605-0.183-1.448zM29.017 28.959v0.615l-0.231-0.178c-0.155-0.12-0.359-0.178-0.622-0.178-0.328 0-0.439 0.047-0.689 0.292-0.262 0.257-0.298 0.346-0.298 0.739 0 0.389 0.035 0.479 0.273 0.697 0.15 0.138 0.367 0.273 0.482 0.302 0.329 0.081 0.803-0.042 0.95-0.248 0.134-0.188 0.134-0.187 0.134 0.054 0 0.155 0.039 0.228 0.109 0.205 0.157-0.051 0.156-2.828-0.001-2.879-0.080-0.026-0.109 0.127-0.109 0.579zM20.301 28.552c0.078-0.205 0.194-0.105 0.301 0.258 0.059 0.201 0.181 0.559 0.272 0.795s0.232 0.615 0.314 0.842 0.178 0.381 0.213 0.344c0.035-0.038 0.21-0.513 0.389-1.057 0.375-1.14 0.476-1.356 0.48-1.022 0.001 0.123-0.138 0.646-0.31 1.16-0.367 1.101-0.495 1.409-0.583 1.409-0.070 0-0.28-0.442-0.469-0.988-0.25-0.722-0.45-1.251-0.488-1.288-0.033-0.033-0.565 1.48-0.733 2.083-0.072 0.261-0.201 0.244-0.316-0.043-0.153-0.382-0.864-2.412-0.864-2.465 0-0.027 0.051-0.049 0.112-0.049s0.165 0.184 0.23 0.408 0.167 0.524 0.226 0.666c0.059 0.142 0.177 0.488 0.261 0.77 0.141 0.47 0.164 0.498 0.275 0.349 0.067-0.090 0.121-0.231 0.121-0.314 0-0.121 0.381-1.369 0.567-1.857zM29.848 28.53c0.095-0.151 0.306-0.092 0.306 0.086 0 0.095-0.057 0.172-0.126 0.172-0.155 0-0.254-0.141-0.18-0.258zM52.659 28.616c0-0.129 0.046-0.176 0.153-0.156 0.084 0.016 0.153 0.086 0.153 0.156s-0.069 0.14-0.153 0.156c-0.108 0.020-0.153-0.026-0.153-0.156zM23.369 29.195c-0.656 0.122-1.005 0.552-0.959 1.181 0.027 0.378 0.381 0.77 0.784 0.869 0.296 0.073 0.789-0.025 0.923-0.184 0.166-0.196 0.043-0.239-0.254-0.088-0.147 0.074-0.338 0.135-0.426 0.135-0.253 0-0.813-0.416-0.813-0.605 0-0.157 0.064-0.169 0.876-0.169 0.85 0 0.876-0.006 0.875-0.193-0.001-0.463-0.597-1.023-1.007-0.947zM30.943 30.201c0-0.698 0.031-1.061 0.088-1.026 0.048 0.029 0.088 0.106 0.088 0.17 0 0.096 0.050 0.093 0.271-0.015 0.368-0.18 0.94-0.101 1.139 0.157 0.118 0.153 0.147 0.356 0.136 0.951-0.018 1.001-0.176 0.985-0.232-0.023-0.036-0.644-0.074-0.803-0.214-0.904-0.266-0.19-0.565-0.144-0.844 0.13-0.241 0.236-0.256 0.293-0.256 0.945 0 0.406-0.036 0.694-0.088 0.694-0.054 0-0.088-0.417-0.088-1.079zM37.554 29.196c-0.444 0.085-0.744 0.218-0.744 0.33 0 0.151 0.071 0.15 0.35-0.007 0.478-0.268 1.051-0.025 1.051 0.446 0 0.188-0.032 0.199-0.599 0.199-0.469 0-0.631 0.034-0.744 0.157-0.488 0.529 0.358 1.198 1.073 0.848 0.229-0.112 0.27-0.114 0.27-0.010 0 0.067 0.039 0.122 0.088 0.122 0.052 0 0.088-0.339 0.088-0.846 0-0.699-0.027-0.869-0.153-0.977-0.236-0.202-0.486-0.298-0.679-0.262zM39.364 29.332c0.335-0.192 0.821-0.167 1.125 0.059 0.291 0.216 0.14 0.333-0.19 0.148-0.36-0.203-0.633-0.187-0.919 0.054-0.203 0.172-0.241 0.27-0.241 0.637 0 0.457 0.154 0.745 0.359 0.668 0.067-0.025 0.099-0.010 0.072 0.033s0.027 0.103 0.12 0.132c0.139 0.043 0.465-0.057 0.905-0.28 0.036-0.018 0.066 0.027 0.066 0.101 0 0.178-0.445 0.396-0.808 0.396-0.359 0-0.626-0.175-0.806-0.53-0.153-0.3-0.186-0.931-0.050-0.931 0.048 0 0.088-0.074 0.088-0.164 0-0.093 0.119-0.233 0.278-0.323zM41.402 29.374c0.204-0.186 0.284-0.205 0.628-0.154 0.369 0.055 0.738 0.28 0.632 0.385-0.026 0.026-0.162-0.012-0.301-0.083-0.402-0.206-0.691-0.165-0.947 0.134-0.325 0.379-0.313 0.867 0.029 1.203 0.301 0.296 0.474 0.312 0.863 0.079 0.343-0.205 0.37-0.209 0.37-0.045 0 0.166-0.446 0.389-0.777 0.389-0.357 0-0.775-0.365-0.887-0.777-0.11-0.401 0.028-0.801 0.39-1.13zM43.482 29.318c-0.255 0.158-0.543 0.689-0.543 0.997 0.001 0.263 0.34 0.705 0.653 0.852 0.259 0.121 0.358 0.126 0.662 0.037 0.197-0.058 0.38-0.163 0.408-0.233 0.084-0.216-0.038-0.235-0.285-0.044-0.129 0.1-0.286 0.182-0.348 0.182-0.207 0-0.635-0.293-0.781-0.535l-0.144-0.239h0.84c0.932 0 1.027-0.058 0.836-0.511-0.233-0.551-0.842-0.789-1.298-0.506zM45.465 29.328c0.142-0.119 0.302-0.175 0.427-0.15 0.11 0.022 0.298 0.060 0.418 0.085 0.155 0.032 0.219 0.1 0.218 0.236-0.001 0.143-0.021 0.162-0.078 0.073-0.128-0.198-0.756-0.196-0.939 0.002-0.222 0.241-0.070 0.433 0.458 0.577 0.562 0.154 0.76 0.328 0.692 0.61-0.074 0.309-0.364 0.519-0.716 0.519-0.324 0-0.818-0.209-0.818-0.346 0-0.118 0.106-0.105 0.432 0.055 0.37 0.181 0.824 0.073 0.865-0.206 0.031-0.208-0.108-0.29-0.754-0.451-0.592-0.147-0.686-0.605-0.207-1.005zM47.542 29.224c0.358-0.060 0.838 0.070 0.897 0.243 0.035 0.103-0.266 0.131-0.365 0.034-0.034-0.033-0.167-0.074-0.295-0.091-0.592-0.078-0.893 0.486-0.351 0.659 0.157 0.050 0.368 0.103 0.47 0.118 0.336 0.048 0.581 0.269 0.581 0.525 0 0.308-0.175 0.477-0.556 0.537-0.589 0.094-1.297-0.233-0.954-0.441 0.048-0.029 0.088-0.018 0.088 0.024s0.152 0.127 0.339 0.187c0.28 0.091 0.383 0.089 0.591-0.009 0.426-0.201 0.334-0.437-0.229-0.589-0.625-0.168-0.762-0.254-0.83-0.521-0.079-0.312 0.187-0.604 0.617-0.676zM49.594 29.217c-0.615 0.111-0.876 0.418-0.876 1.032 0 0.472 0.151 0.742 0.506 0.908 0.439 0.204 0.947 0.12 1.261-0.21 0.208-0.218 0.246-0.331 0.244-0.715-0.003-0.5-0.129-0.706-0.569-0.935-0.174-0.091-0.361-0.117-0.567-0.080zM51.706 29.315c0.317-0.182 0.439-0.189 0.494-0.027 0.019 0.056-0.040 0.102-0.131 0.102s-0.272 0.108-0.401 0.241c-0.216 0.222-0.235 0.298-0.235 0.945 0 0.412-0.036 0.704-0.088 0.704-0.054 0-0.088-0.401-0.088-1.031 0-0.85 0.023-1.031 0.129-1.031 0.080 0 0.109 0.050 0.077 0.133-0.042 0.108 0.005 0.101 0.244-0.036zM52.727 29.24c0.021-0.059 0.073-0.086 0.116-0.059 0.105 0.064 0.102 2.1-0.003 2.1-0.045 0-0.106-0.077-0.137-0.171-0.059-0.182-0.040-1.691 0.024-1.87zM53.953 29.313c-0.256 0.129-0.345 0.239-0.423 0.525-0.199 0.727 0.097 1.312 0.714 1.41 0.367 0.058 0.954-0.157 0.954-0.351 0-0.175-0.046-0.169-0.344 0.048-0.187 0.135-0.317 0.166-0.518 0.123-0.356-0.077-0.714-0.362-0.714-0.568 0-0.152 0.069-0.166 0.835-0.166 0.957 0 1.032-0.056 0.772-0.577-0.124-0.249-0.252-0.357-0.557-0.466-0.375-0.135-0.411-0.134-0.719 0.021zM29.892 30.256c0-0.875 0.021-1.038 0.134-1.038 0.114 0 0.13 0.149 0.109 1.003-0.017 0.708-0.057 1.013-0.134 1.039-0.084 0.027-0.109-0.21-0.109-1.003zM33.778 29.303c-0.308 0.122-0.558 0.548-0.558 0.95 0 0.307 0.050 0.409 0.323 0.662 0.291 0.269 0.361 0.295 0.706 0.256 0.235-0.026 0.471-0.121 0.609-0.246l0.226-0.203-0.060 0.382c-0.073 0.463-0.154 0.569-0.535 0.692-0.247 0.080-0.353 0.067-0.666-0.081-0.444-0.211-0.427-0.209-0.427-0.051 0 0.195 0.339 0.327 0.859 0.335 0.428 0.006 0.499-0.020 0.727-0.271 0.252-0.276 0.253-0.285 0.253-1.394 0-0.884-0.025-1.116-0.119-1.116-0.079 0-0.109 0.079-0.087 0.236 0.018 0.13 0.009 0.187-0.020 0.127-0.138-0.289-0.815-0.443-1.229-0.279zM55.833 29.408c0.175-0.185 0.249-0.203 0.669-0.161 0.461 0.046 0.715 0.167 0.595 0.284-0.033 0.032-0.211 0.009-0.396-0.051-0.402-0.13-0.619-0.1-0.749 0.103-0.179 0.279 0.093 0.532 0.669 0.622 0.713 0.112 0.739 0.856 0.036 1.027-0.367 0.089-1.022-0.076-1.088-0.275-0.049-0.147 0.246-0.131 0.455 0.024 0.235 0.175 0.517 0.158 0.762-0.046l0.207-0.172-0.207-0.172c-0.114-0.095-0.283-0.172-0.376-0.172s-0.281-0.057-0.418-0.126c-0.407-0.207-0.471-0.559-0.16-0.888zM23.767 29.5c0.159 0.123 0.434 0.501 0.434 0.597 0 0.037-0.355 0.067-0.788 0.067-0.441 0-0.788-0.036-0.788-0.082 0-0.488 0.762-0.876 1.142-0.581zM26.027 29.512c0.665 0.337 0.559 1.308-0.164 1.511-0.341 0.096-0.619-0.003-0.862-0.307-0.273-0.34-0.239-0.659 0.108-1.020 0.319-0.332 0.54-0.376 0.918-0.184zM28.448 29.476c0.35 0.131 0.493 0.313 0.545 0.693 0.038 0.281 0.010 0.384-0.155 0.556-0.297 0.31-0.751 0.413-1.054 0.237-0.561-0.326-0.566-1.086-0.009-1.426 0.276-0.168 0.364-0.176 0.673-0.061zM34.769 29.671c0.184 0.184 0.249 0.426 0.212 0.793-0.025 0.247-0.59 0.58-0.876 0.516-0.276-0.062-0.565-0.286-0.649-0.503-0.034-0.088-0.021-0.31 0.029-0.493 0.161-0.586 0.843-0.752 1.284-0.312zM44.184 29.48c0.212 0.095 0.527 0.548 0.44 0.634-0.028 0.027-0.359 0.049-0.736 0.049-0.596 0-0.686-0.020-0.683-0.15 0.003-0.184 0.157-0.387 0.391-0.519 0.221-0.124 0.335-0.127 0.588-0.013zM50.233 29.629c0.336 0.344 0.391 0.717 0.153 1.045-0.271 0.374-0.47 0.459-0.84 0.359-0.385-0.104-0.647-0.404-0.647-0.74 0.001-0.76 0.834-1.174 1.333-0.663zM54.855 29.641c0.444 0.435 0.362 0.522-0.488 0.522-0.652 0-0.744-0.019-0.741-0.15 0.003-0.173 0.249-0.487 0.438-0.56 0.291-0.112 0.548-0.051 0.792 0.188zM38.211 30.5c0 0.182-0.467 0.609-0.665 0.609-0.141 0-0.488-0.175-0.572-0.289-0.090-0.121 0.018-0.387 0.173-0.427 0.079-0.021 0.351-0.042 0.604-0.048 0.398-0.009 0.46 0.012 0.46 0.154z"></path>
</symbol>
<symbol id="icon-close" viewBox="0 0 32 32">
<path d="M32 3.223l-3.223-3.223-12.777 12.777-12.777-12.777-3.223 3.223 12.777 12.777-12.777 12.777 3.223 3.223 12.777-12.777 12.777 12.777 3.223-3.223-12.777-12.777 12.777-12.777z"></path>
</symbol>
</defs>
</svg>
