<svg aria-hidden="true" style="position: absolute; width: 0; height: 0; overflow: hidden;" version="1.1" xmlns="http://www.w3.org/2000/svg" xmlns:xlink="http://www.w3.org/1999/xlink">
<defs>
<symbol id="icon-instagram" viewBox="0 0 32 32">
<path stroke-linejoin="round" stroke-linecap="round" stroke-miterlimit="4" stroke-width="1.3176" d="M24.084 6.515h0.837M0.659 11.367c0-3.748 0-5.622 0.73-7.054 0.642-1.259 1.665-2.283 2.925-2.925 1.432-0.73 3.306-0.73 7.054-0.73h8.701c3.748 0 5.622 0 7.054 0.73 1.259 0.642 2.283 1.665 2.925 2.925 0.73 1.432 0.73 3.306 0.73 7.054v8.701c0 3.748 0 5.622-0.73 7.054-0.642 1.259-1.665 2.283-2.925 2.925-1.432 0.73-3.306 0.73-7.054 0.73h-8.701c-3.748 0-5.622 0-7.054-0.73-1.259-0.642-2.283-1.665-2.925-2.925-0.73-1.432-0.73-3.306-0.73-7.054v-8.701z"></path>
<path stroke-linejoin="round" stroke-linecap="round" stroke-miterlimit="4" stroke-width="1.3176" d="M21.51 14.86c0.113 0.761 0.075 1.536-0.112 2.282s-0.519 1.448-0.977 2.066c-0.458 0.618-1.034 1.139-1.693 1.534s-1.391 0.657-2.152 0.77c-0.761 0.113-1.536 0.075-2.282-0.112s-1.448-0.519-2.066-0.977c-1.247-0.926-2.076-2.309-2.304-3.845s0.164-3.101 1.090-4.348c0.925-1.247 2.309-2.076 3.845-2.304s3.101 0.164 4.348 1.090c1.248 0.925 2.076 2.309 2.304 3.845z"></path>
</symbol>
<symbol id="icon-menu" viewBox="0 0 39 32">
<path stroke-linejoin="miter" stroke-linecap="butt" stroke-miterlimit="4" stroke-width="1.7231" d="M0 30.4h39.385"></path>
<path stroke-linejoin="miter" stroke-linecap="butt" stroke-miterlimit="4" stroke-width="1.7231" d="M0 15.631h39.385"></path>
<path stroke-linejoin="miter" stroke-linecap="butt" stroke-miterlimit="4" stroke-width="1.7231" d="M0 0.862h39.385"></path>
</symbol>
<symbol id="icon-phone" viewBox="0 0 32 32">
<path stroke-linejoin="miter" stroke-linecap="round" stroke-miterlimit="10" stroke-width="1.3176" d="M16.916 29.055c-0.507-0.226-1.007-0.468-1.498-0.728-2.445-1.382-4.691-3.091-6.675-5.079-2.575-2.424-4.691-5.294-6.243-8.472-0.831-1.708-1.392-3.534-1.664-5.413-0.369-1.898-0.159-3.863 0.602-5.641 0.47-0.765 1.037-1.465 1.685-2.082 0.263-0.295 0.583-0.534 0.94-0.702s0.745-0.262 1.14-0.277c0.822 0.124 1.566 0.553 2.081 1.208 1.123 1.249 2.328 2.372 3.515 3.559 0.467 0.4 0.759 0.969 0.811 1.582-0.020 0.516-0.218 1.009-0.562 1.395-0.394 0.5-0.873 0.957-1.33 1.436-0.276 0.267-0.487 0.593-0.617 0.954s-0.175 0.747-0.132 1.128c0.287 0.891 0.778 1.704 1.434 2.372 0.791 1.083 1.581 2.084 2.475 3.144 1.608 1.857 3.513 3.433 5.638 4.664 0.294 0.222 0.641 0.361 1.007 0.405s0.736-0.010 1.074-0.156c0.707-0.394 1.335-0.916 1.851-1.54 0.448-0.546 1.089-0.895 1.789-0.978 0.623 0.033 1.211 0.299 1.644 0.749 0.56 0.479 1.039 1.042 1.56 1.561 0.519 0.521 0.936 0.895 1.372 1.374 0.523 0.461 1.015 0.954 1.477 1.478 0.358 0.462 0.528 1.042 0.479 1.623-0.186 0.696-0.586 1.315-1.144 1.77-0.785 0.817-1.739 1.453-2.795 1.863s-2.189 0.584-3.32 0.511c-2.289-0.13-4.529-0.71-6.593-1.708z"></path>
</symbol>
</defs>
</svg>
